<?xml version="1.0" encoding="UTF-8"?>
<svg version="1.1" xmlns="http://www.w3.org/2000/svg" width="1467" height="59">
<path d="M0 0 C1.18646662 0.00023397 1.18646662 0.00023397 2.39690226 0.00047267 C3.30793606 -0.00177462 4.21896986 -0.00402192 5.15761074 -0.00633731 C6.17213874 -0.0037103 7.18666673 -0.00108328 8.231938 0.00162334 C9.30352076 0.00046949 10.37510352 -0.00068435 11.47915849 -0.00187316 C15.11839525 -0.00454841 18.75758895 -0.00001025 22.39682352 0.00441665 C25.01281011 0.00398113 27.62879666 0.00310659 30.24478298 0.00182748 C35.95742381 -0.00025209 41.67005426 0.00140741 47.38269388 0.00546569 C55.87727184 0.01148357 64.3718432 0.01180309 72.8664229 0.0109237 C87.15342471 0.00960761 101.44042189 0.01295952 115.72742235 0.01894111 C129.8801974 0.02485136 144.03297052 0.02870568 158.18574679 0.02979392 C159.50405946 0.02989703 159.50405946 0.02989703 160.84900472 0.03000222 C165.31208424 0.03034054 169.77516375 0.03064193 174.23824327 0.0309291 C205.87781019 0.03303138 237.5173746 0.03977396 269.1569401 0.04923171 C299.90075507 0.05841112 330.64456935 0.06549719 361.38838541 0.06973952 C362.33548533 0.06987105 363.28258526 0.07000258 364.25838517 0.07013809 C373.7692611 0.07145657 383.28013703 0.07273239 392.79101297 0.07397695 C412.16701195 0.07651339 431.54301089 0.07933464 450.9190098 0.08232803 C451.80995249 0.08246532 452.70089518 0.08260261 453.61883613 0.08274406 C513.1483842 0.09194993 572.67793087 0.10779573 632.20747721 0.12467116 C633.20747721 3.12467116 633.20747721 3.12467116 632.20747721 8.12467116 C422.98747721 8.12467116 213.76747721 8.12467116 -1.79252279 8.12467116 C-2.12252279 5.81467116 -2.45252279 3.50467116 -2.79252279 1.12467116 C-1.79252279 0.12467116 -1.79252279 0.12467116 0 0 Z " fill="#000000" transform="translate(833.7925227917731,24.875328835099936)"/>
<path d="M0 0 C1.31026309 -0.00375528 1.31026309 -0.00375528 2.64699614 -0.00758642 C3.61952531 -0.00524525 4.59205447 -0.00290409 5.59405422 -0.00049198 C6.62143967 -0.00194542 7.64882512 -0.00339886 8.70734346 -0.00489634 C12.19624169 -0.00858467 15.68509701 -0.00505691 19.17399502 -0.00163448 C21.68202423 -0.00278518 24.19005328 -0.00437236 26.69808197 -0.00636172 C32.1748711 -0.00968222 37.65164678 -0.00985608 43.12843609 -0.00731456 C51.2723605 -0.00354555 59.41627655 -0.00545878 67.5602009 -0.00852287 C82.10184238 -0.01380001 96.64347948 -0.0133277 111.18512139 -0.01044396 C123.91042715 -0.00793267 136.6357313 -0.0072697 149.36103725 -0.0084666 C150.20372223 -0.00854299 151.04640721 -0.00861937 151.9146281 -0.00869807 C155.33498951 -0.00900939 158.75535091 -0.00932779 162.17571232 -0.00965784 C194.28962667 -0.01271981 226.40353822 -0.00993867 258.51745214 -0.00456094 C287.07573811 0.00018499 315.63401963 -0.00023962 344.19230556 -0.00502193 C376.24586556 -0.01037155 408.29942309 -0.01250269 440.35298347 -0.00940967 C443.76726882 -0.00908893 447.18155416 -0.00877609 450.5958395 -0.0084666 C451.43658107 -0.00838752 452.27732264 -0.00830845 453.14354122 -0.00822697 C465.86374566 -0.00708743 478.5839483 -0.00842362 491.30415249 -0.01094615 C505.76133132 -0.01379877 520.21850507 -0.01310482 534.67568326 -0.00766541 C542.77610986 -0.00471858 550.87652547 -0.00455256 558.9769518 -0.00831159 C565.00867442 -0.01080295 571.04038259 -0.00812136 577.07210433 -0.00333701 C579.52496952 -0.00221162 581.97783616 -0.00280667 584.43070042 -0.0052128 C587.74142949 -0.00821357 591.0520968 -0.00517566 594.36282253 -0.00049198 C595.82161628 -0.00400373 595.82161628 -0.00400373 597.30988061 -0.00758642 C598.18338934 -0.0050829 599.05689807 -0.00257938 599.95687675 0 C600.71518679 0.00006776 601.47349683 0.00013552 602.25478595 0.00020533 C603.97843838 0.12534916 603.97843838 0.12534916 604.97843838 1.12534916 C604.97843838 3.43534916 604.97843838 5.74534916 604.97843838 8.12534916 C404.00843838 8.12534916 203.03843838 8.12534916 -4.02156162 8.12534916 C-4.35156162 5.81534916 -4.68156162 3.50534916 -5.02156162 1.12534916 C-3.49304992 -0.40316254 -2.13239617 0.00019054 0 0 Z " fill="#000000" transform="translate(5.021561622619629,24.874650835990906)"/>
<path d="M0 0 C5.25170388 1.84567522 8.04931841 4.31100146 11 9 C13.09927742 14.55164361 13.21337602 20.13215954 13 26 C16.63 26.99 20.26 27.98 24 29 C23.38125 28.29875 22.7625 27.5975 22.125 26.875 C18.60011071 21.72516175 18.62852802 15.03717706 18 9 C23.97904042 9.75790653 27.21972622 11.29525248 31 16 C33.95660656 21.84384992 35 26.40710492 35 33 C38.96 33 42.92 33 47 33 C46.05125 32.071875 45.1025 31.14375 44.125 30.1875 C40.17757657 25.66285899 39.61078796 20.82354729 39 15 C44.31901517 14.49342713 46.86484812 15.67389957 51 19 C55.28499512 23.41102438 59 29.74027473 59 36 C63.29 35.34 67.58 34.68 72 34 C70.96875 33.608125 69.9375 33.21625 68.875 32.8125 C63.07074915 29.60893181 61.31234849 22.86133757 59 17 C60 16 60 16 63.1875 15.75 C70.00071331 16.19676809 73.88871082 19.38987059 78.453125 24.15625 C80.89198111 27.0631694 83 30.12022142 83 34 C86.96 33.01 90.92 32.02 95 31 C93.68 30.01 92.36 29.02 91 28 C82.24331621 20.9072542 82.24331621 20.9072542 80 16 C80 15.34 80 14.68 80 14 C87.85880662 13.34408724 93.71730082 13.25780211 100.12109375 18.19921875 C102.93093333 20.89222508 104.94990115 23.69338896 107 27 C110.96 25.35 114.92 23.7 119 22 C117.845 21.814375 116.69 21.62875 115.5 21.4375 C110.21844659 20.13120832 106.59013371 16.99465581 103 13 C101.7734375 10.7734375 101.7734375 10.7734375 101 9 C106.38230842 6.5852346 111.17024197 6.19167221 117 7 C121.77134194 8.98938011 125.57570213 12.1476649 129 16 C133.16175509 14.56939669 136.58544906 12.43486544 140.23046875 10.0234375 C142 9 142 9 144 9 C143.87109375 11.26171875 143.87109375 11.26171875 143 14 C140.34765625 16.01953125 140.34765625 16.01953125 137.0625 17.8125 C135.98097656 18.41707031 134.89945313 19.02164062 133.78515625 19.64453125 C131 21 131 21 129 21 C129.03480469 22.15757813 129.06960938 23.31515625 129.10546875 24.5078125 C129.13362207 26.0468604 129.16092056 27.58592411 129.1875 29.125 C129.21263672 29.88554687 129.23777344 30.64609375 129.26367188 31.4296875 C129.3395272 37.2958325 128.346984 41.40764949 124.28125 45.8984375 C123.6934375 46.38570312 123.105625 46.87296875 122.5 47.375 C121.9121875 47.87773438 121.324375 48.38046875 120.71875 48.8984375 C119 50 119 50 116 50 C115.74950579 47.45884191 115.52416567 44.91944416 115.3125 42.375 C115.23966797 41.66214844 115.16683594 40.94929688 115.09179688 40.21484375 C114.70807721 35.29420337 115.34135303 32.33311615 118 28 C113.56425747 28.67395778 109.82133669 29.59726912 106 32 C104.54367791 35.54371709 104.06627578 38.78474368 103.55078125 42.57421875 C102.76957386 47.43321789 101.38381587 49.46237432 98 53 C92.43843844 57 92.43843844 57 89 57 C88.4417211 43.06370458 88.4417211 43.06370458 92 38 C92.99 37.01 92.99 37.01 94 36 C89.71 36.66 85.42 37.32 81 38 C80.443125 39.98 80.443125 39.98 79.875 42 C77.85928993 47.92581434 75.18803488 53.09469296 69.6796875 56.38671875 C63.97631579 59 63.97631579 59 61 59 C60.27358629 52.31699385 62.57258312 47.68120313 66 42 C66.99 41.01 66.99 41.01 68 40 C64.04 39.67 60.08 39.34 56 39 C55.319375 40.52625 54.63875 42.0525 53.9375 43.625 C51.48659779 48.53376721 48.72784097 52.1336803 44 55 C40.33107956 56.20126389 36.8423218 56.0738908 33 56 C33.1459889 49.13852159 36.24392216 44.83485345 41 40 C43.23046875 38.73828125 43.23046875 38.73828125 45 38 C43.60582227 37.65980848 42.20955342 37.32818221 40.8125 37 C39.64654297 36.7215625 39.64654297 36.7215625 38.45703125 36.4375 C35.77519019 35.95997027 33.70783011 35.59707488 31 36 C28.89828661 38.0860485 28.89828661 38.0860485 27.125 40.8125 C23.78310639 45.22055743 21.55232065 47.65978467 16 49 C12.64834265 49.20178847 9.35172209 49.18208551 6 49 C7.33704445 43.51811775 9.83501657 39.72310032 14 36 C16.31889847 34.68022612 18.4567297 33.8647119 21 33 C18.14589666 31.49439503 15.31875358 30.36783204 12.25 29.375 C11.45078125 29.11460938 10.6515625 28.85421875 9.828125 28.5859375 C9.22484375 28.39257812 8.6215625 28.19921875 8 28 C7.34644531 28.70576172 7.34644531 28.70576172 6.6796875 29.42578125 C-1.13445378 37.59511077 -1.13445378 37.59511077 -6.9765625 38.20703125 C-10.75462608 38.28485653 -14.33868484 37.91532879 -18 37 C-17.42194191 33.0981079 -15.644973 30.86538742 -13 28 C-9.53700204 25.53944882 -6.05397518 24.2256204 -2 23 C-2.99580078 22.83564453 -2.99580078 22.83564453 -4.01171875 22.66796875 C-15.00909044 20.69325821 -15.00909044 20.69325821 -18.40625 16.09765625 C-22 10.57725694 -22 10.57725694 -22 8 C-15.60950412 8.25258877 -11.04794701 8.69077694 -6 13 C-3.58363706 15.65799923 -3 16.35294333 -3 20 C-0.69 20.66 1.62 21.32 4 22 C3.154375 21.154375 2.30875 20.30875 1.4375 19.4375 C-2.692435 13.84584643 -0.84257095 6.48195669 0 0 Z " fill="#000000" transform="translate(660,0)"/>
</svg>
