<?xml version="1.0" encoding="UTF-8"?>
<svg version="1.1" xmlns="http://www.w3.org/2000/svg" width="1472" height="196">
<path d="M0 0 C209.22 0 418.44 0 634 0 C634 2.31 634 4.62 634 7 C424.78 7 215.56 7 0 7 C0 4.69 0 2.38 0 0 Z " fill="#000000" transform="translate(838,164)"/>
<path d="M0 0 C200.97 0 401.94 0 609 0 C609 2.31 609 4.62 609 7 C408.03 7 207.06 7 0 7 C0 4.69 0 2.38 0 0 Z " fill="#000000" transform="translate(7,164)"/>
<path d="M0 0 C5.25170388 1.84567522 8.04931841 4.31100146 11 9 C13.09927742 14.55164361 13.21337602 20.13215954 13 26 C17.29 27.32 21.58 28.64 26 30 C25.21625 29.34 24.4325 28.68 23.625 28 C18.70662948 22.37900512 18.74257804 16.20781483 19 9 C24.30106154 9.32127646 27.55003172 12.22552975 31 16 C34.19233601 21.53338242 34.57130022 26.74098315 35 33 C41.93 33.495 41.93 33.495 49 34 C47.906875 33.21625 46.81375 32.4325 45.6875 31.625 C41.26238016 27.8717101 40.01029753 23.59031301 39 18 C39 17.01 39 16.02 39 15 C44.66362743 15.19872377 48.20675914 15.985383 52.390625 19.91015625 C55.66451118 24.16144049 59 30.53079791 59 36 C63.29 35.34 67.58 34.68 72 34 C70.35 33.01 68.7 32.02 67 31 C62.86408315 26.49914931 60 22.20526733 60 16 C65.30634673 15.6816192 68.560964 16.01044515 73 19 C78.02046654 23.80382352 80.76176259 27.28528778 83 34 C87.29 33.01 91.58 32.02 96 31 C94.06692503 29.71128335 92.1095313 28.45797557 90.125 27.25 C85.10766165 23.63751639 82.17396056 19.84004861 80 14 C87.85880662 13.34408724 93.71730082 13.25780211 100.12109375 18.19921875 C102.93093333 20.89222508 104.94990115 23.69338896 107 27 C110.96 25.35 114.92 23.7 119 22 C117.02 21.4740625 117.02 21.4740625 115 20.9375 C109.66163475 19.17212288 105.72900699 16.18562009 102 12 C101.505 10.515 101.505 10.515 101 9 C106.6482907 6.68275253 112.29972033 5.77320477 118.1796875 7.72265625 C122.6182167 9.79117835 125.75971942 12.35468434 129 16 C133.59753475 14.76651507 136.78684044 12.90484956 140.484375 10.0234375 C142 9 142 9 144 9 C143.87109375 11.26171875 143.87109375 11.26171875 143 14 C140.34765625 16.01953125 140.34765625 16.01953125 137.0625 17.8125 C135.98097656 18.41707031 134.89945313 19.02164063 133.78515625 19.64453125 C131 21 131 21 129 21 C129.04640625 22.0621875 129.0928125 23.124375 129.140625 24.21875 C129.6223168 39.71164331 129.6223168 39.71164331 125 45 C122.74988466 46.95138483 120.55280555 48.42904274 118 50 C117.34 49.67 116.68 49.34 116 49 C115.60071467 46.56526014 115.34787798 44.26465606 115.1875 41.8125 C115.07792969 40.49894531 114.96835937 39.18539062 114.85546875 37.83203125 C115.01002114 33.73430449 115.90614982 31.47892937 118 28 C117.38511719 28.20496094 116.77023437 28.40992188 116.13671875 28.62109375 C112.7578125 29.74739583 109.37890625 30.87369792 106 32 C105.10890542 35.05592152 105.10890542 35.05592152 104.5625 38.6875 C103.32057545 44.93514084 102.3637668 49.50559639 97.03515625 53.45703125 C91.63774105 57 91.63774105 57 89 57 C88.25946704 43.32071061 88.25946704 43.32071061 93 37 C93.33 36.67 93.66 36.34 94 36 C89.71 36.66 85.42 37.32 81 38 C80.443125 39.7015625 80.443125 39.7015625 79.875 41.4375 C77.55847348 47.52108834 74.58193566 54.23874386 68.375 57.0625 C65 58 65 58 61 58 C61.2385385 50.4860373 63.13731764 45.77846605 68 40 C68.66 39.67 69.32 39.34 70 39 C65.38 39 60.76 39 56 39 C54.948125 41.3203125 54.948125 41.3203125 53.875 43.6875 C51.01999654 49.38944194 48.21579343 52.26841892 42.5625 55.3125 C39.31539659 56.18367409 36.34539983 56.13119215 33 56 C33.31204327 49.91515627 36.2344134 45.59437599 40 41 C42.875 38.9375 42.875 38.9375 45 38 C43.60582227 37.65980848 42.20955342 37.32818221 40.8125 37 C39.64654297 36.7215625 39.64654297 36.7215625 38.45703125 36.4375 C35.79856322 35.96413208 33.6860195 35.63116049 31 36 C29.05437688 37.85165487 29.05437688 37.85165487 27.5 40.3125 C23.97263992 45.18653117 20.94979397 47.77980632 15 49 C13.41788427 49.06548492 11.83329919 49.08578381 10.25 49.0625 C9.45078125 49.05347656 8.6515625 49.04445312 7.828125 49.03515625 C7.22484375 49.02355469 6.6215625 49.01195312 6 49 C7.3269836 43.55936724 9.70597338 39.56485229 14 36 C16.93108862 34.64204051 19.85799842 33.7331337 23 33 C20.9246318 32.10627207 18.83932994 31.23558304 16.75 30.375 C15.58984375 29.88773438 14.4296875 29.40046875 13.234375 28.8984375 C10.16615469 27.73589685 10.16615469 27.73589685 7.796875 28.6640625 C5.94726386 30.03920817 4.20572246 31.44934322 2.5 33 C-1.87468979 36.97699071 -4.97390262 38.33890312 -11.02734375 38.203125 C-13.59389518 37.93884644 -15.70135576 37.14932212 -18 36 C-15.22357575 31.40822144 -12.56337264 28.01354797 -8 25 C-4.99755122 24.33169716 -2.07126439 24.07507535 1 24 C-2.23985286 22.81468798 -4.97973582 22.00147376 -8.4375 21.75 C-13.18626726 20.75025952 -15.80956414 18.58614883 -19 15 C-20.9375 11.625 -20.9375 11.625 -22 9 C-16.29826639 8.65789598 -11.80101089 8.50835572 -7 12 C-6.16643698 13.30754984 -5.37763873 14.64425341 -4.625 16 C-2.74157713 19.35928538 -1.31822986 20.67277362 2.3125 22 C3.529375 22.33 4.74625 22.66 6 23 C5.21625 22.278125 4.4325 21.55625 3.625 20.8125 C0.19187201 17.13414858 -1.01221065 14.73594772 -0.9765625 9.66796875 C-0.86054687 8.51941406 -0.74453125 7.37085938 -0.625 6.1875 C-0.51414062 5.02605469 -0.40328125 3.86460937 -0.2890625 2.66796875 C-0.19367187 1.78753906 -0.09828125 0.90710938 0 0 Z " fill="#000000" transform="translate(666,138)"/>
<path d="M0 0 C2.7998362 1.66798752 4.47068628 2.81922324 5.8125 5.8125 C6.32374179 11.77698754 6.38088447 15.8741429 3 21 C-2.56965175 27.36304944 -10.31027 30.6820522 -18.6875 31.25 C-19.450625 31.1675 -20.21375 31.085 -21 31 C-20.59007812 31.50789063 -20.18015625 32.01578125 -19.7578125 32.5390625 C-13.82734729 40.11530275 -11.98789343 46.3657704 -13 56 C-14.78742949 63.87753358 -18.21549287 69.4400057 -24 75 C-24.763125 75.7425 -25.52625 76.485 -26.3125 77.25 C-37.1211088 84.28816387 -50.09152338 85.69639109 -62.58984375 83.31640625 C-71.68383235 80.75905356 -78.82719309 76.81820158 -84.03515625 68.76953125 C-87.6785031 62.08760362 -88.09554233 54.05832436 -86.5 46.69140625 C-84.45454073 40.54340651 -80.37359483 36.52642161 -75 33 C-73.35202764 32.28837557 -71.68834592 31.60968047 -70 31 C-70.61875 30.360625 -71.2375 29.72125 -71.875 29.0625 C-75.35493213 24.0473037 -76.27900855 19.35164352 -75.5625 13.3125 C-73.18556736 8.27340281 -69.63775077 5.29240966 -64.6640625 2.85546875 C-58.20378222 0.78097992 -50.4717856 0.86822612 -44.3125 3.8125 C-41 6 -41 6 -39 9 C-38.1523391 13.76474651 -38.34133121 17.05074203 -41.125 21.0625 C-44.42316144 23.28517401 -46.10496422 23.45291114 -50 23 C-50.66 21.68 -51.32 20.36 -52 19 C-51.34 18.01 -50.68 17.02 -50 16 C-49.66659529 12.95804573 -49.66659529 12.95804573 -50 10 C-52.39286884 7.60713116 -53.09447094 7.67949384 -56.375 7.625 C-59.75307372 7.69017184 -60.71536724 7.78652543 -63.5 9.875 C-66.29687506 13.83723967 -66.46521247 17.24753537 -66 22 C-65.26051003 24.98257918 -65.26051003 24.98257918 -63 27 C-60.04054636 28.00222632 -57.08999427 28.56597565 -54 29 C-52.875 32.75 -52.875 32.75 -54 35 C-56.29296875 35.45703125 -56.29296875 35.45703125 -59.1875 35.8125 C-64.66345728 36.722789 -67.27309385 37.89084706 -71 42 C-73.91075877 48.06408077 -74.17134937 54.40048863 -72.08984375 60.796875 C-69.139999 67.2087562 -65.94520038 70.45597913 -59.28515625 73.0625 C-50.64660118 75.5277238 -41.42959377 75.21729222 -33.3125 71.375 C-26.34641197 67.34448565 -22.47451067 62.81424423 -20 55 C-19.17487938 48.85184515 -19.8933638 44.09539073 -22.734375 38.59375 C-24.3015688 36.62024669 -25.65943857 35.90360658 -28 35 C-31.7875275 34.65567932 -34.37734593 34.76153674 -37.9375 36.125 C-40.34964956 37.89672273 -40.34964956 37.89672273 -40.3125 41.1875 C-40.1578125 42.5796875 -40.1578125 42.5796875 -40 44 C-38.39125 43.7525 -38.39125 43.7525 -36.75 43.5 C-33 43 -33 43 -29 43 C-27.79146919 48.31753555 -27.79146919 48.31753555 -28.6875 51.25 C-30.3574425 53.47659001 -31.315244 54.2018293 -34 55 C-38.00022687 54.85713475 -40.24332729 54.61728563 -43.375 52.0625 C-47.15663477 47.2627328 -46.4235125 41.88297358 -46 36 C-43.98239434 30.0533728 -40.57940956 27.31560247 -35.08203125 24.51171875 C-28.96862941 21.94780186 -22.22899389 21.47106887 -15.71679688 20.5390625 C-7.9952606 19.37434446 -7.9952606 19.37434446 -1 16 C0.05081138 13.97581668 0.05081138 13.97581668 0 12 C-1.09631369 10.67868182 -1.09631369 10.67868182 -3.8125 10.875 C-6.43934716 10.97801361 -8.48962847 11.34916294 -11 12 C-12 11 -12 11 -12.3125 7.6875 C-12 4 -12 4 -10.5 1.5625 C-7.03466672 -0.6033333 -3.9210422 -0.77798456 0 0 Z " fill="#000000" transform="translate(859,0)"/>
<path d="M0 0 C6.3532772 -0.34514786 11.35121875 -0.3228125 17 3 C22.12953163 8.04772092 23.8881137 13.52976841 26 20.3125 C26.3403125 21.36888672 26.680625 22.42527344 27.03125 23.51367188 C29.8401079 32.29667261 32.49227858 41.12652419 35 50 C38.81477083 36.96270627 42.3818837 23.8798471 45.72680664 10.71362305 C46.00903076 9.60801025 46.29125488 8.50239746 46.58203125 7.36328125 C46.83186768 6.37626221 47.0817041 5.38924316 47.33911133 4.37231445 C48 2 48 2 49 0 C50.98 0 52.96 0 55 0 C59.48525161 10.22929632 63.14996615 20.70588066 66.8125 31.25 C67.41568707 32.97797931 68.0192004 34.70584476 68.62304688 36.43359375 C70.08579036 40.62109471 71.54412948 44.81010482 73 49 C75.00877361 45.3801842 76.16118065 41.54553813 77.34765625 37.6015625 C77.56441513 36.88898285 77.78117401 36.1764032 78.00450134 35.44223022 C78.46091637 33.93826265 78.91551412 32.43374253 79.3684082 30.92871094 C80.05849966 28.63827723 80.75637747 26.35032011 81.45507812 24.0625 C81.89890958 22.596497 82.34228396 21.13035554 82.78515625 19.6640625 C82.99245865 18.98574371 83.19976105 18.30742493 83.41334534 17.60855103 C84.56481032 13.7600361 85.42969891 9.97631941 86 6 C83.69 6 81.38 6 79 6 C78.61781233 4.34385343 78.28604898 2.67542976 78 1 C79 0 79 0 81.50024414 -0.11352539 C82.58426514 -0.10828857 83.66828613 -0.10305176 84.78515625 -0.09765625 C85.95498047 -0.09443359 87.12480469 -0.09121094 88.33007812 -0.08789062 C89.56177734 -0.07951172 90.79347656 -0.07113281 92.0625 -0.0625 C93.91584961 -0.05573242 93.91584961 -0.05573242 95.80664062 -0.04882812 C98.87114117 -0.03699608 101.93554721 -0.02051173 105 0 C106.125 3.75 106.125 3.75 105 6 C102.49036975 6.48573489 99.98549289 6.7654556 97.4453125 7.046875 C93.88696136 8.43383615 93.5196168 10.57041247 92 14 C91.28902034 16.01653604 90.6263213 18.05059767 90.00708008 20.09716797 C89.64693314 21.27793915 89.28678619 22.45871033 88.91572571 23.67526245 C88.53748154 24.93484772 88.15923737 26.19443298 87.76953125 27.4921875 C87.37072368 28.8065491 86.97143947 30.12076617 86.57170105 31.43484497 C85.52634417 34.87585344 84.48743102 38.31877406 83.44989014 41.762146 C82.38782867 45.28272262 81.31962604 48.80143444 80.25195312 52.3203125 C78.16198563 59.21174067 76.07882839 66.10520244 74 73 C71.69 73 69.38 73 67 73 C61.39 56.5 55.78 40 50 23 C46.49679368 35.2612221 42.99934674 47.51648552 39.625 59.8125 C39.26702161 61.1139583 38.90894857 62.41539056 38.55078125 63.71679688 C37.69960247 66.81094678 36.84933538 69.90534369 36 73 C33.69 73 31.38 73 29 73 C28.78337708 72.30366455 28.56675415 71.6073291 28.34356689 70.88989258 C26.29137463 64.29740797 24.23257855 57.70701796 22.16652298 51.11886597 C21.10481449 47.73253421 20.04558961 44.34546871 18.9921875 40.95654297 C17.77838155 37.05197366 16.5535163 33.15094908 15.328125 29.25 C14.95504211 28.04448486 14.58195923 26.83896973 14.1975708 25.59692383 C11.28848358 14.9049073 11.28848358 14.9049073 4.859375 6.34375 C3.81523438 5.92609375 3.81523438 5.92609375 2.75 5.5 C2.04359375 5.2009375 1.3371875 4.901875 0.609375 4.59375 C-0.18726563 4.29984375 -0.18726563 4.29984375 -1 4 C-0.67 2.68 -0.34 1.36 0 0 Z " fill="#000000" transform="translate(892,10)"/>
<path d="M0 0 C4.92552258 -0.0499429 9.85089336 -0.0859729 14.77661133 -0.10986328 C16.44753593 -0.11983703 18.11844347 -0.1334209 19.78930664 -0.15087891 C45.09937611 -0.4084492 45.09937611 -0.4084492 54 6 C57.94628536 9.91545501 59.84350135 13.12201621 60.3125 18.75 C60.21415684 24.11953659 58.04641289 27.88917217 54.38671875 31.6640625 C50.85027868 34.84764269 47.30687844 36.93755117 43 39 C52.79576723 56.19794193 52.79576723 56.19794193 68.375 66.6875 C68.91125 66.790625 69.4475 66.89375 70 67 C69.67 68.65 69.34 70.3 69 72 C60.03694489 72.49187498 53.28362981 72.63410558 46.34765625 66.55078125 C40.19980387 60.11361817 35.71827133 52.05818962 31.01220703 44.54711914 C30.0888416 43.02064681 30.0888416 43.02064681 29 42 C27.65252916 41.76924918 26.29622435 41.58846937 24.9375 41.4375 C23.638125 41.293125 22.33875 41.14875 21 41 C21.13847638 44.62532066 21.28702643 48.25015904 21.4375 51.875 C21.47681641 52.90753906 21.51613281 53.94007812 21.55664062 55.00390625 C21.59853516 55.99003906 21.64042969 56.97617188 21.68359375 57.9921875 C21.72025146 58.90339355 21.75690918 59.81459961 21.79467773 60.75341797 C21.86577065 63.03483481 21.86577065 63.03483481 23 65 C24.88764903 65.68472665 24.88764903 65.68472665 27.0625 66.125 C27.79597656 66.29257813 28.52945313 66.46015625 29.28515625 66.6328125 C30.13400391 66.81457031 30.13400391 66.81457031 31 67 C30.67 68.65 30.34 70.3 30 72 C20.1 72 10.2 72 0 72 C-0.495 69.525 -0.495 69.525 -1 67 C-0.43410156 66.87882812 0.13179688 66.75765625 0.71484375 66.6328125 C1.44832031 66.46523437 2.18179688 66.29765625 2.9375 66.125 C3.66839844 65.96257812 4.39929688 65.80015625 5.15234375 65.6328125 C7.20700294 65.17038477 7.20700294 65.17038477 8 63 C8.10071624 61.28482415 8.13836137 59.56577275 8.14526367 57.84765625 C8.15164352 56.77314209 8.15802338 55.69862793 8.16459656 54.59155273 C8.16570938 53.42696533 8.1668222 52.26237793 8.16796875 51.0625 C8.17296135 49.27598022 8.17296135 49.27598022 8.17805481 47.45336914 C8.1831246 44.9314818 8.18546312 42.40958774 8.18530273 39.88769531 C8.18749086 36.01616455 8.20565084 32.14491786 8.22460938 28.2734375 C8.22754287 25.82812598 8.22952796 23.3828131 8.23046875 20.9375 C8.24124702 19.1906189 8.24124702 19.1906189 8.25224304 17.40844727 C8.24916641 16.33393311 8.24608978 15.25941895 8.24291992 14.15234375 C8.24505745 12.7290979 8.24505745 12.7290979 8.24723816 11.27709961 C8.21905181 8.80128571 8.21905181 8.80128571 6 7 C3.68234271 6.28072705 1.34904126 5.6090107 -1 5 C-0.67 3.35 -0.34 1.7 0 0 Z M22 7 C20.64299353 9.71401294 20.8876139 11.84846316 20.90234375 14.8828125 C20.90556641 16.04941406 20.90878906 17.21601563 20.91210938 18.41796875 C20.92048828 19.64128906 20.92886719 20.86460938 20.9375 22.125 C20.94201172 23.35605469 20.94652344 24.58710937 20.95117188 25.85546875 C20.9629867 28.90369392 20.97945972 31.95182314 21 35 C31.40549113 35.87400686 31.40549113 35.87400686 41.3125 33.5 C45.37392023 29.72193467 46.8259738 26.2140463 47.125 20.69140625 C46.81385214 14.92544754 45.15318172 11.96001048 41 8 C35.53065899 4.72528952 27.59953901 3.56802448 22 7 Z " fill="#000000" transform="translate(126,10)"/>
<path d="M0 0 C16.06644978 -0.81234858 16.06644978 -0.81234858 22 4 C29.41582361 10.95145515 35.24754215 19.4888664 41.25683594 27.64355469 C44.56366701 32.11379748 47.91035131 36.55425587 51.25 41 C52.54702505 42.72905412 53.84391299 44.45821111 55.140625 46.1875 C55.69266602 46.92355469 56.24470703 47.65960938 56.81347656 48.41796875 C57.2050293 48.94003906 57.59658203 49.46210937 58 50 C58.13088769 35.96078522 57.85120257 22.01444237 57 8 C54.36 7.01 51.72 6.02 49 5 C49.33 3.35 49.66 1.7 50 0 C57.92 0 65.84 0 74 0 C74.495 1.98 74.495 1.98 75 4 C73 6 73 6 69.9375 6.5 C68.968125 6.665 67.99875 6.83 67 7 C65.65818428 9.68363145 65.84562541 11.79001076 65.81054688 14.79492188 C65.79382935 16.0095813 65.77711182 17.22424072 65.7598877 18.47570801 C65.74631226 19.79341187 65.73273682 21.11111572 65.71875 22.46875 C65.70071453 23.82874289 65.68211165 25.18872837 65.66296387 26.54870605 C65.6032578 30.86574301 65.55109686 35.18285368 65.5 39.5 C65.44080034 44.50174779 65.37854072 49.50341665 65.30812073 54.50502014 C65.2815133 56.51139573 65.2607834 58.51784646 65.2401123 60.52429199 C65.22339478 61.73895142 65.20667725 62.95361084 65.18945312 64.20507812 C65.17066101 65.81485535 65.17066101 65.81485535 65.15148926 67.45715332 C65 70 65 70 64 72 C59.52485582 72.42281441 59.52485582 72.42281441 57.20678711 70.55541992 C56.40640015 69.55925659 56.40640015 69.55925659 55.58984375 68.54296875 C54.99284668 67.80868652 54.39584961 67.0744043 53.78076172 66.31787109 C50.9892973 62.6844514 48.24447583 59.02764741 45.5625 55.3125 C39.62280151 47.16300269 33.55710923 39.1187907 27.41821289 31.1184082 C26.46676392 29.87643677 26.46676392 29.87643677 25.49609375 28.609375 C24.66356079 27.5260791 24.66356079 27.5260791 23.81420898 26.42089844 C21.48875002 23.31778297 19.24560422 20.16138781 17 17 C16.9752796 23.19303089 16.95713027 29.38603305 16.94506836 35.57910156 C16.94003987 37.68587749 16.93321624 39.79264992 16.92456055 41.89941406 C16.91243011 44.92774314 16.90675683 47.95602606 16.90234375 50.984375 C16.89718246 51.92617615 16.89202118 52.86797729 16.88670349 53.83831787 C16.88662796 54.71892883 16.88655243 55.59953979 16.88647461 56.50683594 C16.88314369 57.66599518 16.88314369 57.66599518 16.87974548 58.84857178 C16.95124836 61.33770499 16.95124836 61.33770499 18 65 C20.64 65.66 23.28 66.32 26 67 C25.67 68.65 25.34 70.3 25 72 C17.08 72 9.16 72 1 72 C0.505 69.525 0.505 69.525 0 67 C0.84884766 66.83564453 0.84884766 66.83564453 1.71484375 66.66796875 C2.44832031 66.50941406 3.18179687 66.35085937 3.9375 66.1875 C4.66839844 66.03667969 5.39929687 65.88585937 6.15234375 65.73046875 C7.06693359 65.36888672 7.06693359 65.36888672 8 65 C9.00274157 61.9917753 9.13236002 59.97024321 9.14526367 56.82592773 C9.15164352 55.77150986 9.15802338 54.71709198 9.16459656 53.63072205 C9.16570938 52.49316971 9.1668222 51.35561737 9.16796875 50.18359375 C9.17129715 49.01619156 9.17462555 47.84878937 9.17805481 46.64601135 C9.18311979 44.1771789 9.18546327 41.7083396 9.18530273 39.23950195 C9.1874932 35.44926801 9.20566461 31.6593232 9.22460938 27.86914062 C9.2275425 25.47395933 9.22952784 23.07877665 9.23046875 20.68359375 C9.23765427 19.54401718 9.24483978 18.40444061 9.25224304 17.23033142 C9.24916641 16.1790657 9.24608978 15.12779999 9.24291992 14.04467773 C9.24505745 12.65260353 9.24505745 12.65260353 9.24723816 11.23240662 C9.21280959 8.79616035 9.21280959 8.79616035 7 7 C4.68234271 6.28072705 2.34904126 5.6090107 0 5 C0 3.35 0 1.7 0 0 Z " fill="#000000" transform="translate(1193,10)"/>
<path d="M0 0 C10.45424553 -0.42445809 16.94908629 -0.10305904 25 7 C27.12216917 9.4726798 29.05921503 12.07122104 31 14.6875 C32.14694377 16.21108179 33.29408509 17.73451488 34.44140625 19.2578125 C35.31949951 20.43005371 35.31949951 20.43005371 36.21533203 21.62597656 C39.09632465 25.45836675 42.0186554 29.25891248 44.9375 33.0625 C48.99084864 38.35136469 53.00165931 43.66887908 57 49 C57 35.14 57 21.28 57 7 C54.36 6.67 51.72 6.34 49 6 C48.61781233 4.34385343 48.28604898 2.67542976 48 1 C49 0 49 0 51.31665039 -0.11352539 C52.31688232 -0.10828857 53.31711426 -0.10305176 54.34765625 -0.09765625 C55.42724609 -0.09443359 56.50683594 -0.09121094 57.61914062 -0.08789062 C59.32360352 -0.07532227 59.32360352 -0.07532227 61.0625 -0.0625 C62.77276367 -0.05573242 62.77276367 -0.05573242 64.51757812 -0.04882812 C67.34510351 -0.03699747 70.1725264 -0.0205141 73 0 C73.495 2.475 73.495 2.475 74 5 C73.43410156 5.15855469 72.86820312 5.31710938 72.28515625 5.48046875 C71.55167969 5.71378906 70.81820312 5.94710938 70.0625 6.1875 C68.96615234 6.51814453 68.96615234 6.51814453 67.84765625 6.85546875 C65.77294407 7.85065394 65.77294407 7.85065394 65.39735413 10.19755554 C64.97800072 13.1551557 64.83945006 15.99668903 64.79467773 18.98364258 C64.77473251 20.16448929 64.75478729 21.345336 64.73423767 22.56196594 C64.71752518 23.82671249 64.70081268 25.09145905 64.68359375 26.39453125 C64.6524221 28.34826912 64.6524221 28.34826912 64.62062073 30.34147644 C64.56561816 33.79209263 64.51611341 37.24276635 64.46777344 40.69348145 C64.41739836 44.21953406 64.36179613 47.74550387 64.30664062 51.27148438 C64.19932622 58.18091771 64.09782275 65.09042595 64 72 C61.14257813 72.13598633 61.14257813 72.13598633 58 72 C55.71875 69.82421875 55.71875 69.82421875 53.5 66.6875 C53.08186035 66.11064453 52.6637207 65.53378906 52.23291016 64.93945312 C51.30663686 63.65975548 50.38857887 62.37408307 49.47753906 61.08349609 C47.39365044 58.14497899 45.25206431 55.25032578 43.11206055 52.35253906 C41.94681074 50.77441578 40.78424249 49.19430924 39.62426758 47.61230469 C34.20225319 40.22606944 28.6502101 32.94181242 23.06591797 25.67773438 C22.41896973 24.83404297 21.77202148 23.99035156 21.10546875 23.12109375 C20.52949951 22.3727124 19.95353027 21.62433105 19.36010742 20.85327148 C18 19 18 19 17 17 C16.97470295 23.51447727 16.95715556 30.02894193 16.94506836 36.54345703 C16.94003091 38.76090976 16.93320078 40.97835916 16.92456055 43.19580078 C16.91246928 46.37793805 16.9067659 49.56003151 16.90234375 52.7421875 C16.89718246 53.73805878 16.89202118 54.73393005 16.88670349 55.75997925 C16.88662796 56.68078278 16.88655243 57.6015863 16.88647461 58.55029297 C16.88314369 59.76940872 16.88314369 59.76940872 16.87974548 61.01315308 C16.87415342 63.07527359 16.87415342 63.07527359 18 65 C19.88263881 65.90343684 19.88263881 65.90343684 22.0625 66.625 C22.79597656 66.88539062 23.52945312 67.14578125 24.28515625 67.4140625 C25.13400391 67.70410156 25.13400391 67.70410156 26 68 C25.67 69.32 25.34 70.64 25 72 C16.75 72 8.5 72 0 72 C0 70.35 0 68.7 0 67 C0.56589844 66.84144531 1.13179688 66.68289062 1.71484375 66.51953125 C2.81505859 66.16955078 2.81505859 66.16955078 3.9375 65.8125 C4.66839844 65.59207031 5.39929688 65.37164062 6.15234375 65.14453125 C8.2381932 64.14416121 8.2381932 64.14416121 8.60739136 61.73635864 C8.98031361 59.13720792 9.12688751 56.69724715 9.12939453 54.07373047 C9.13254669 53.1227951 9.13569885 52.17185974 9.13894653 51.19210815 C9.1369223 50.17738434 9.13489807 49.16266052 9.1328125 48.1171875 C9.13376923 47.0659671 9.13472595 46.0147467 9.13571167 44.93167114 C9.13639098 42.7143752 9.13455406 40.49707725 9.13037109 38.27978516 C9.12500866 34.88048868 9.13033003 31.48132369 9.13671875 28.08203125 C9.13605813 25.92708304 9.13477732 23.77213491 9.1328125 21.6171875 C9.13584885 20.08902908 9.13584885 20.08902908 9.13894653 18.52999878 C9.13579437 17.58536774 9.13264221 16.64073669 9.12939453 15.66748047 C9.12859894 14.83650848 9.12780334 14.0055365 9.12698364 13.14938354 C9.08239676 10.81431106 9.08239676 10.81431106 8 8 C6.16158056 7.09135782 6.16158056 7.09135782 4 6.5 C1.8125 5.84375 1.8125 5.84375 0 5 C-0.33 4.01 -0.66 3.02 -1 2 C-0.67 1.34 -0.34 0.68 0 0 Z " fill="#000000" transform="translate(267,10)"/>
<path d="M0 0 C2.83781045 2.29468883 4.83630208 4.05622245 5.34375 7.74609375 C5.52993099 12.00677414 5.45972114 14.16153052 3.0703125 17.8203125 C-1.05227358 20.48281601 -3.08276513 20.38322184 -7.9296875 19.7578125 C-9.9296875 18.2578125 -9.9296875 18.2578125 -10.9296875 16.7578125 C-9.5546875 15.2578125 -9.5546875 15.2578125 -7.9296875 13.7578125 C-7.2696875 13.7578125 -6.6096875 13.7578125 -5.9296875 13.7578125 C-5.48609487 9.94291592 -5.66933457 8.17078611 -7.7421875 4.8828125 C-12.40168551 1.7764805 -16.48643762 2.0293174 -21.9296875 2.7578125 C-25.04160911 3.58797414 -25.04160911 3.58797414 -26.9296875 5.7578125 C-28.73878958 9.67753368 -29.1278222 11.89046774 -28.1640625 16.109375 C-25.64390787 21.57358124 -19.84156151 23.44579391 -14.6796875 25.8828125 C3.67900935 34.81968757 3.67900935 34.81968757 8.0703125 42.7578125 C9.71447149 48.11777081 9.77654571 53.55083372 8.0703125 58.8828125 C3.95654085 64.79635925 -1.2187838 69.36339223 -8.24609375 71.32421875 C-18.66210235 73.00715464 -28.92381685 72.71913144 -37.8671875 66.8203125 C-41.2181579 63.4693421 -42.25540664 60.53315755 -42.4296875 55.8203125 C-42.36886696 53.07527874 -42.29076623 51.33733744 -40.83203125 48.99609375 C-38.11205062 46.46469845 -35.88159267 45.75129117 -32.2421875 45.2578125 C-28.9296875 45.7578125 -28.9296875 45.7578125 -26.9921875 47.2578125 C-26.6415625 47.7528125 -26.2909375 48.2478125 -25.9296875 48.7578125 C-26.4246875 49.2528125 -26.9196875 49.7478125 -27.4296875 50.2578125 C-29.54127298 53.77712164 -29.62921145 56.74995176 -28.9296875 60.7578125 C-27.70533595 63.40019096 -27.70533595 63.40019096 -24.9296875 64.7578125 C-18.3474294 66.45950939 -11.92172683 66.14062683 -5.9296875 62.7578125 C-3.36864585 59.06991252 -3.46780182 55.14572649 -3.9296875 50.7578125 C-6.8426192 45.15318442 -10.09664112 43.17651454 -15.6171875 40.6953125 C-17.05772254 40.00741199 -18.49783005 39.31861543 -19.9375 38.62890625 C-21.26798138 38.00467993 -22.598686 37.38092902 -23.9296875 36.7578125 C-30.62175353 33.56090631 -35.73842097 30.03223828 -39.9296875 23.7578125 C-41.71511733 18.42228383 -41.43917175 13.33989518 -39.7421875 8.0703125 C-36.34941551 1.8697292 -32.54429708 -0.87982693 -25.9296875 -3.2421875 C-17.49365021 -5.6841983 -7.45549001 -4.79928305 0 0 Z " fill="#000000" transform="translate(592.9296875,12.2421875)"/>
<path d="M0 0 C2.66713481 2.11201345 3.9834799 3.53247094 5.0703125 6.79296875 C5.74361567 13.75043481 5.74361567 13.75043481 3.1328125 17.79296875 C-0.97881168 20.47811107 -4.15721344 20.26085836 -8.9296875 19.79296875 C-9.5896875 18.47296875 -10.2496875 17.15296875 -10.9296875 15.79296875 C-10.2696875 15.44234375 -9.6096875 15.09171875 -8.9296875 14.73046875 C-6.57209366 12.84240035 -6.57209366 12.84240035 -6.4296875 9.29296875 C-6.56994704 5.81499827 -6.56994704 5.81499827 -8.62109375 4.09765625 C-12.79496911 1.73881637 -17.27720654 2.28216224 -21.9296875 2.79296875 C-24.98812169 4.04130924 -26.29942428 4.99081556 -28.3046875 7.54296875 C-29.25977699 10.98129093 -28.83390411 13.35694563 -27.9296875 16.79296875 C-23.87734914 21.82793826 -18.90368319 23.96540671 -13.1796875 26.60546875 C4.35444715 35.06739577 4.35444715 35.06739577 8.1328125 43.85546875 C9.92371705 50.14816761 9.55453567 55.1627794 6.390625 60.87109375 C2.75180728 66.16783434 -2.04728589 69.55111349 -8.2109375 71.32421875 C-18.59870858 73.11521376 -28.94507992 72.74026311 -37.8671875 66.85546875 C-41.2181579 63.50449835 -42.25540664 60.5683138 -42.4296875 55.85546875 C-42.36886696 53.11043499 -42.29076623 51.37249369 -40.83203125 49.03125 C-38.07000323 46.46072258 -35.88579635 45.78784812 -32.1796875 45.35546875 C-28.9296875 45.79296875 -28.9296875 45.79296875 -26.9296875 47.79296875 C-26.9296875 48.78296875 -26.9296875 49.77296875 -26.9296875 50.79296875 C-27.9196875 51.28796875 -27.9196875 51.28796875 -28.9296875 51.79296875 C-30.24091673 55.2223375 -29.89622265 56.90911147 -28.8671875 60.48046875 C-27.23180653 63.89703185 -27.23180653 63.89703185 -24.3671875 65.29296875 C-18.48998819 66.1478341 -12.42606366 66.31589697 -7.3671875 62.79296875 C-4.62146668 59.41362005 -4.04453309 57.38688821 -3.546875 53.171875 C-4.14017566 49.48493518 -5.49757664 47.63290308 -7.9296875 44.79296875 C-10.83824642 42.99050718 -13.90730735 41.6851204 -17.0546875 40.35546875 C-36.94797991 31.39793459 -36.94797991 31.39793459 -40.375 22.9609375 C-42.04482692 16.43450128 -41.64414267 10.42135269 -38.25 4.546875 C-34.37760513 -0.59722352 -29.48513564 -2.82787878 -23.24609375 -3.92578125 C-15.14214714 -4.90973429 -7.11337709 -4.44946057 0 0 Z " fill="#000000" transform="translate(1445.9296875,12.20703125)"/>
<path d="M0 0 C2.66713481 2.11201345 3.9834799 3.53247094 5.0703125 6.79296875 C5.74361567 13.75043481 5.74361567 13.75043481 3.1328125 17.79296875 C-0.97881168 20.47811107 -4.15721344 20.26085836 -8.9296875 19.79296875 C-9.5896875 18.47296875 -10.2496875 17.15296875 -10.9296875 15.79296875 C-8.4546875 13.31796875 -8.4546875 13.31796875 -5.9296875 10.79296875 C-7.19915264 5.96854691 -7.19915264 5.96854691 -10.9296875 2.79296875 C-15.81161388 2.21106731 -20.41799049 2.17594956 -24.9921875 4.04296875 C-27.14233736 5.98503959 -28.15238539 6.99468114 -28.9296875 9.79296875 C-28.85647629 13.81958547 -28.5271374 16.05064623 -25.98046875 19.21484375 C-22.03560132 22.54853454 -17.84444915 24.45395418 -13.1796875 26.60546875 C4.35444715 35.06739577 4.35444715 35.06739577 8.1328125 43.85546875 C9.92371705 50.14816761 9.55453567 55.1627794 6.390625 60.87109375 C2.75180728 66.16783434 -2.04728589 69.55111349 -8.2109375 71.32421875 C-18.59870858 73.11521376 -28.94507992 72.74026311 -37.8671875 66.85546875 C-41.27384356 63.44881269 -42.23168225 60.58211288 -42.3046875 55.79296875 C-42.24235239 52.26584022 -42.18709395 51.14475757 -40.0546875 48.23046875 C-36.19088649 45.61672101 -33.61045789 45.54221319 -28.9296875 45.79296875 C-26.9296875 47.79296875 -26.9296875 47.79296875 -26.9296875 50.79296875 C-27.9196875 51.28796875 -27.9196875 51.28796875 -28.9296875 51.79296875 C-30.24091673 55.2223375 -29.89622265 56.90911147 -28.8671875 60.48046875 C-27.23180653 63.89703185 -27.23180653 63.89703185 -24.3671875 65.29296875 C-18.48998819 66.1478341 -12.42606366 66.31589697 -7.3671875 62.79296875 C-4.17321736 58.86192858 -3.56457945 55.79494906 -3.9296875 50.79296875 C-5.73654184 45.4928627 -10.19393067 43.27536234 -14.9296875 40.79296875 C-17.06921476 39.80009859 -19.21555139 38.8218176 -21.3671875 37.85546875 C-37.16987584 30.65076282 -37.16987584 30.65076282 -40.33984375 22.99609375 C-41.86736442 17.29065232 -41.73422798 11.92158777 -39.3671875 6.48046875 C-36.60707672 1.70335394 -32.98883565 -1.13884606 -27.79296875 -2.953125 C-18.49153931 -5.30688987 -8.35979569 -5.22910297 0 0 Z " fill="#000000" transform="translate(1384.9296875,12.20703125)"/>
<path d="M0 0 C2.83781045 2.29468883 4.83630208 4.05622245 5.34375 7.74609375 C5.52993099 12.00677414 5.45972114 14.16153052 3.0703125 17.8203125 C-1.00118164 20.44981914 -3.14721274 20.22821985 -7.9296875 19.7578125 C-8.5896875 19.4278125 -9.2496875 19.0978125 -9.9296875 18.7578125 C-9.9296875 17.4378125 -9.9296875 16.1178125 -9.9296875 14.7578125 C-8.6096875 14.4278125 -7.2896875 14.0978125 -5.9296875 13.7578125 C-5.48609487 9.94291592 -5.66933457 8.17078611 -7.7421875 4.8828125 C-12.38104512 1.79024075 -16.50535842 1.9922165 -21.9296875 2.7578125 C-25.04906719 4.13033957 -26.419459 4.7373555 -27.9296875 7.7578125 C-28.0249574 9.23449587 -28.05954709 10.71556707 -28.0546875 12.1953125 C-28.05726562 12.97777344 -28.05984375 13.76023437 -28.0625 14.56640625 C-28.01351298 16.93676597 -28.01351298 16.93676597 -26.9296875 19.7578125 C-25.13975142 20.86789232 -25.13975142 20.86789232 -22.9296875 21.7578125 C-22.14480957 22.13977783 -21.35993164 22.52174316 -20.55126953 22.9152832 C-19.68872559 23.33382568 -18.82618164 23.75236816 -17.9375 24.18359375 C-15.97642594 25.14555498 -14.0154934 26.10780478 -12.0546875 27.0703125 C-11.07371094 27.54404297 -10.09273437 28.01777344 -9.08203125 28.50585938 C-1.940424 32.02847402 4.44089957 35.30796491 8.0703125 42.7578125 C9.69725886 48.23026844 9.84623563 53.63423341 7.8828125 59.0078125 C3.67924854 65.38563368 -1.54887428 68.99914844 -8.734375 71.34765625 C-18.19225519 73.11469792 -28.44377258 72.47895658 -36.9296875 67.7578125 C-40.4980188 64.1894812 -42.08261888 61.44232976 -42.2421875 56.4453125 C-42.21382264 52.92239651 -41.99619425 51.86422331 -40.0546875 48.7578125 C-37.24457492 46.11300066 -36.41063873 45.79279077 -32.4921875 45.5078125 C-28.9296875 45.7578125 -28.9296875 45.7578125 -26.9921875 47.2578125 C-26.6415625 47.7528125 -26.2909375 48.2478125 -25.9296875 48.7578125 C-26.4246875 49.2528125 -26.9196875 49.7478125 -27.4296875 50.2578125 C-29.63105399 53.92675664 -29.19996183 56.50099175 -28.9296875 60.7578125 C-28.5996875 61.7478125 -28.2696875 62.7378125 -27.9296875 63.7578125 C-22.58875475 65.78736694 -17.30600646 66.94873228 -11.78125 65 C-7.79234156 63.17115028 -5.53035061 62.00784903 -3.9296875 57.7578125 C-3.29780964 52.19531797 -3.29780964 52.19531797 -5.47265625 47.25390625 C-8.54832988 44.12933479 -11.67333841 42.57727573 -15.6171875 40.7578125 C-17.05652937 40.06361808 -18.4953356 39.36831192 -19.93359375 38.671875 C-20.62340332 38.34219727 -21.31321289 38.01251953 -22.02392578 37.67285156 C-29.47698829 34.0943122 -36.57397631 30.68339044 -40.3046875 22.8828125 C-41.69955792 15.9084604 -41.37230591 11.04949443 -37.9296875 4.7578125 C-29.13226767 -5.99458952 -11.51801045 -7.41442778 0 0 Z " fill="#000000" transform="translate(41.9296875,12.2421875)"/>
<path d="M0 0 C4.46165577 -0.05016131 8.92315374 -0.08607179 13.38500977 -0.10986328 C14.89675767 -0.11980161 16.40848699 -0.13335698 17.92016602 -0.15087891 C47.21236615 -0.48142481 47.21236615 -0.48142481 55.55859375 7.48828125 C60.20408181 12.79177045 60.29649666 17.29566153 60.20703125 24.0625 C59.76780447 30.29454784 56.46950787 34.2607442 52.05078125 38.38671875 C43.4460546 45.15577038 33.42112743 44.69702716 23 44 C22.34 43.67 21.68 43.34 21 43 C21.11437651 45.72998676 21.24111406 48.4584582 21.375 51.1875 C21.4059375 51.95642578 21.436875 52.72535156 21.46875 53.51757812 C21.77130041 59.49811927 21.77130041 59.49811927 24 65 C27.53514293 66.37967524 27.53514293 66.37967524 31 67 C31 68.65 31 70.3 31 72 C20.77 72 10.54 72 0 72 C-0.33 70.68 -0.66 69.36 -1 68 C1.97 66.68 4.94 65.36 8 64 C8 45.52 8 27.04 8 8 C5.36 7.01 2.72 6.02 0 5 C-0.33 4.01 -0.66 3.02 -1 2 C-0.67 1.34 -0.34 0.68 0 0 Z M22 7 C20.80868767 10.33203402 20.88513948 13.56845355 20.90234375 17.078125 C20.90556641 18.23828125 20.90878906 19.3984375 20.91210938 20.59375 C20.92048828 21.8003125 20.92886719 23.006875 20.9375 24.25 C20.94201172 25.47203125 20.94652344 26.6940625 20.95117188 27.953125 C20.96295185 30.96879946 20.97940147 33.98437498 21 37 C27.3282209 39.24177976 31.61840219 39.11795058 38 37 C41.64927295 34.83770838 44.16183838 32.31190515 46.4375 28.75 C47.62436046 22.94757106 47.9778163 17.92071059 45.25 12.5625 C40.70142293 7.38217611 36.73648252 6.00810038 30 5 C25.60849511 4.98622407 25.60849511 4.98622407 22 7 Z " fill="#000000" transform="translate(610,10)"/>
<path d="M0 0 C7.22655492 -0.02529174 14.4530985 -0.04284219 21.6796875 -0.05493164 C24.13965278 -0.05996989 26.59961505 -0.0668006 29.05957031 -0.07543945 C32.58920025 -0.08752723 36.11879069 -0.09323329 39.6484375 -0.09765625 C40.75367767 -0.10281754 41.85891785 -0.10797882 42.99765015 -0.11329651 C44.01855743 -0.11337204 45.03946472 -0.11344757 46.09130859 -0.11352539 C46.99287689 -0.115746 47.89444519 -0.11796661 48.82333374 -0.12025452 C51 0 51 0 53 1 C53.90238747 3.70716242 54.11851302 5.23776768 54.09765625 8.01171875 C54.09443359 8.76904297 54.09121094 9.52636719 54.08789062 10.30664062 C54.07532227 11.48516602 54.07532227 11.48516602 54.0625 12.6875 C54.05798828 13.48478516 54.05347656 14.28207031 54.04882812 15.10351562 C54.0370585 17.06904257 54.01912348 19.03453085 54 21 C51.125 21.625 51.125 21.625 48 22 C45.31376477 19.31376477 45.33380434 16.95335101 44.7578125 13.2890625 C43.70311762 10.10323159 42.78602359 8.92878556 40 7 C36.75218394 6.37452256 33.55085056 6.30455031 30.25 6.25 C27.1975 6.1675 24.145 6.085 21 6 C21 14.91 21 23.82 21 33 C27.93 33 34.86 33 42 33 C42.495 35.475 42.495 35.475 43 38 C42 39 42 39 39.95874023 39.11352539 C38.64691772 39.10567017 38.64691772 39.10567017 37.30859375 39.09765625 C36.36435547 39.09443359 35.42011719 39.09121094 34.44726562 39.08789062 C33.45404297 39.07951172 32.46082031 39.07113281 31.4375 39.0625 C30.44041016 39.05798828 29.44332031 39.05347656 28.41601562 39.04882812 C25.94395151 39.03700007 23.47200482 39.02051849 21 39 C21.11035961 42.39647413 21.24087444 45.79188789 21.375 49.1875 C21.4059375 50.14720703 21.436875 51.10691406 21.46875 52.09570312 C21.50742188 53.02705078 21.54609375 53.95839844 21.5859375 54.91796875 C21.63306885 56.19837036 21.63306885 56.19837036 21.68115234 57.50463867 C22.04116429 60.32215945 22.69417074 62.47643967 24 65 C27.29987875 66.09995958 29.84032287 66.16747591 33.3125 66.1875 C34.42238281 66.20167969 35.53226563 66.21585937 36.67578125 66.23046875 C40.22795834 65.9841956 42.79269353 65.56253392 46 64 C47.6065048 61.44411081 47.6065048 61.44411081 48.5625 58.4375 C49.62890625 55.43359375 49.62890625 55.43359375 51 53 C53.52734375 52.09765625 53.52734375 52.09765625 56 52 C56.99 52.495 56.99 52.495 58 53 C57.01724138 68.98275862 57.01724138 68.98275862 54 72 C52.31198015 72.09353163 50.62004793 72.11744791 48.92944336 72.11352539 C47.84839828 72.11344986 46.76735321 72.11337433 45.65354919 72.11329651 C43.889515 72.10555458 43.889515 72.10555458 42.08984375 72.09765625 C40.89267227 72.0962413 39.69550079 72.09482635 38.46205139 72.09336853 C34.62050934 72.08774979 30.77902457 72.07519411 26.9375 72.0625 C24.34049563 72.05748741 21.74349035 72.05292409 19.14648438 72.04882812 C12.76430321 72.03777427 6.3821557 72.02101792 0 72 C-0.33 71.01 -0.66 70.02 -1 69 C0 67 0 67 8 64 C8 45.52 8 27.04 8 8 C5.36 7.01 2.72 6.02 0 5 C-0.33 4.01 -0.66 3.02 -1 2 C-0.67 1.34 -0.34 0.68 0 0 Z " fill="#000000" transform="translate(1276,10)"/>
<path d="M0 0 C7.06580552 -0.0506353 14.1315644 -0.0857062 21.19750977 -0.10986328 C23.60214995 -0.11993201 26.00677786 -0.13358785 28.41137695 -0.15087891 C31.86412584 -0.17508874 35.3167131 -0.18647432 38.76953125 -0.1953125 C39.84773636 -0.20563507 40.92594147 -0.21595764 42.03681946 -0.22659302 C43.53803596 -0.22681961 43.53803596 -0.22681961 45.06958008 -0.22705078 C45.95116287 -0.231492 46.83274567 -0.23593323 47.74104309 -0.24050903 C50 0 50 0 53 2 C53.34057617 3.97119141 53.34057617 3.97119141 53.29296875 6.3515625 C53.2784668 7.62773437 53.2784668 7.62773437 53.26367188 8.9296875 C53.23853516 9.81914062 53.21339844 10.70859375 53.1875 11.625 C53.16719727 12.97078125 53.16719727 12.97078125 53.14648438 14.34375 C53.11106925 16.56309789 53.06168461 18.78125188 53 21 C48.25 22.125 48.25 22.125 46 21 C45.18371109 18.24614621 44.5909148 15.46935796 43.9765625 12.6640625 C42.77592495 9.38872327 42.14775719 8.5142996 39 7 C35.91868442 6.5107598 32.86555189 6.39836385 29.75 6.3125 C26.8625 6.209375 23.975 6.10625 21 6 C21 14.91 21 23.82 21 33 C27.6 33 34.2 33 41 33 C41.66 34.32 42.32 35.64 43 37 C42.505 37.99 42.505 37.99 42 39 C35.07 39 28.14 39 21 39 C21.33 47.25 21.66 55.5 22 64 C26.1019713 66.05098565 27.91124699 66.27081004 32.375 66.25 C34.02628906 66.25773437 34.02628906 66.25773437 35.7109375 66.265625 C39.19298607 65.98441443 41.82667608 65.46845792 45 64 C46.48592688 61.98149591 46.48592688 61.98149591 47.25 59.5625 C48.33425598 56.67590624 49.26304876 54.60542686 51 52 C53.5625 51.75 53.5625 51.75 56 52 C56.33 52.33 56.66 52.66 57 53 C56.96159938 55.06477174 56.84339697 57.12826396 56.6875 59.1875 C56.60886719 60.31542969 56.53023437 61.44335938 56.44921875 62.60546875 C56 66 56 66 54 72 C35.85 72 17.7 72 -1 72 C-1 70.35 -1 68.7 -1 67 C-0.43410156 66.81824219 0.13179687 66.63648437 0.71484375 66.44921875 C1.44832031 66.19785156 2.18179688 65.94648437 2.9375 65.6875 C3.66839844 65.44386719 4.39929688 65.20023437 5.15234375 64.94921875 C7.35932024 64.08759559 7.35932024 64.08759559 8 61 C8.09705576 59.3798676 8.13814866 57.75607795 8.14526367 56.13305664 C8.15164352 55.1451564 8.15802338 54.15725616 8.16459656 53.13941956 C8.16570938 52.07376266 8.1668222 51.00810577 8.16796875 49.91015625 C8.17129715 48.81408554 8.17462555 47.71801483 8.17805481 46.58872986 C8.18311981 44.26952535 8.18546327 41.95031355 8.18530273 39.63110352 C8.18748915 36.08011901 8.20564942 32.52944515 8.22460938 28.97851562 C8.22754336 26.72656356 8.22952812 24.47461003 8.23046875 22.22265625 C8.23765427 21.15902359 8.24483978 20.09539093 8.25224304 18.99952698 C8.24916641 18.00847458 8.24608978 17.01742218 8.24291992 15.99633789 C8.24434494 15.12602432 8.24576996 14.25571075 8.24723816 13.35902405 C7.97292067 10.74162242 7.48870446 9.17011553 6 7 C2.45411499 5.70079254 2.45411499 5.70079254 -1 5 C-0.67 3.35 -0.34 1.7 0 0 Z " fill="#000000" transform="translate(1000,10)"/>
<path d="M0 0 C7.06580552 -0.0506353 14.1315644 -0.0857062 21.19750977 -0.10986328 C23.60214995 -0.11993201 26.00677786 -0.13358785 28.41137695 -0.15087891 C31.86412584 -0.17508874 35.3167131 -0.18647432 38.76953125 -0.1953125 C39.84773636 -0.20563507 40.92594147 -0.21595764 42.03681946 -0.22659302 C43.53803596 -0.22681961 43.53803596 -0.22681961 45.06958008 -0.22705078 C45.95116287 -0.231492 46.83274567 -0.23593323 47.74104309 -0.24050903 C50 0 50 0 53 2 C53.34057617 3.97119141 53.34057617 3.97119141 53.29296875 6.3515625 C53.2784668 7.62773437 53.2784668 7.62773437 53.26367188 8.9296875 C53.23853516 9.81914062 53.21339844 10.70859375 53.1875 11.625 C53.16719727 12.97078125 53.16719727 12.97078125 53.14648438 14.34375 C53.11106925 16.56309789 53.06168461 18.78125188 53 21 C50.03 21.495 50.03 21.495 47 22 C44.66916634 18.50374951 43.91495397 15.30904945 42.87890625 11.27734375 C42.12215021 8.66505332 42.12215021 8.66505332 39 7 C36.97457852 6.63648496 36.97457852 6.63648496 34.76953125 6.5859375 C34.04612549 6.55032715 33.32271973 6.5147168 32.57739258 6.47802734 C31.66497803 6.44402832 30.75256348 6.4100293 29.8125 6.375 C26.904375 6.25125 23.99625 6.1275 21 6 C21 14.91 21 23.82 21 33 C27.5370285 32.96041741 27.5370285 32.96041741 34.07397461 32.90991211 C35.28839233 32.90616577 35.28839233 32.90616577 36.52734375 32.90234375 C37.77632446 32.89448853 37.77632446 32.89448853 39.05053711 32.88647461 C41 33 41 33 42 34 C42 35.65 42 37.3 42 39 C35.07 39 28.14 39 21 39 C21.33 47.25 21.66 55.5 22 64 C26.1019713 66.05098565 27.91124699 66.27081004 32.375 66.25 C34.02628906 66.25773437 34.02628906 66.25773437 35.7109375 66.265625 C39.19298607 65.98441443 41.82667608 65.46845792 45 64 C46.48592688 61.98149591 46.48592688 61.98149591 47.25 59.5625 C48.33425598 56.67590624 49.26304876 54.60542686 51 52 C53.5625 51.75 53.5625 51.75 56 52 C56.33 52.33 56.66 52.66 57 53 C56.69047619 68.30952381 56.69047619 68.30952381 53 72 C51.31198015 72.09353163 49.62004793 72.11744791 47.92944336 72.11352539 C46.84839828 72.11344986 45.76735321 72.11337433 44.65354919 72.11329651 C42.889515 72.10555458 42.889515 72.10555458 41.08984375 72.09765625 C39.89267227 72.0962413 38.69550079 72.09482635 37.46205139 72.09336853 C33.62050934 72.08774979 29.77902457 72.07519411 25.9375 72.0625 C23.34049563 72.05748741 20.74349035 72.05292409 18.14648438 72.04882812 C11.76430321 72.03777427 5.3821557 72.02101792 -1 72 C-1 70.35 -1 68.7 -1 67 C-0.43410156 66.82984375 0.13179687 66.6596875 0.71484375 66.484375 C1.44832031 66.24203125 2.18179688 65.9996875 2.9375 65.75 C3.66839844 65.51796875 4.39929688 65.2859375 5.15234375 65.046875 C7.15593567 64.18130491 7.15593567 64.18130491 7.60639954 62.23338318 C8.02617288 59.85148881 8.13413939 57.6376065 8.14526367 55.21899414 C8.15164352 54.27443863 8.15802338 53.32988312 8.16459656 52.35670471 C8.16570938 51.34309372 8.1668222 50.32948273 8.16796875 49.28515625 C8.17129715 48.23726425 8.17462555 47.18937225 8.17805481 46.10972595 C8.1831145 43.89485106 8.18546343 41.67996856 8.18530273 39.46508789 C8.18748947 36.07881104 8.2056562 32.69285986 8.22460938 29.30664062 C8.22754344 27.15364695 8.22952815 25.00065172 8.23046875 22.84765625 C8.23765427 21.83606949 8.24483978 20.82448273 8.25224304 19.78224182 C8.24916641 18.83453415 8.24608978 17.88682648 8.24291992 16.91040039 C8.24434494 16.08085342 8.24576996 15.25130646 8.24723816 14.3966217 C7.95570481 11.57062119 7.33634448 9.50983097 6 7 C2.46485707 5.62032476 2.46485707 5.62032476 -1 5 C-0.67 3.35 -0.34 1.7 0 0 Z " fill="#000000" transform="translate(60,10)"/>
<path d="M0 0 C1.48691849 -0.00472824 1.48691849 -0.00472824 3.00387573 -0.009552 C4.08299225 -0.00752777 5.16210876 -0.00550354 6.27392578 -0.00341797 C7.37519806 -0.00437469 8.47647034 -0.00533142 9.6111145 -0.00631714 C11.94647275 -0.00699925 14.28183287 -0.00514283 16.6171875 -0.00097656 C20.19682069 0.0043611 23.77632782 -0.0009153 27.35595703 -0.00732422 C29.62028023 -0.00666324 31.88460334 -0.00538168 34.14892578 -0.00341797 C35.76152786 -0.00645432 35.76152786 -0.00645432 37.40670776 -0.009552 C38.90308273 -0.00482376 38.90308273 -0.00482376 40.4296875 0 C41.30825409 0.00079559 42.18682068 0.00159119 43.0920105 0.00241089 C45.34423828 0.12939453 45.34423828 0.12939453 48.34423828 1.12939453 C48.5696094 4.25341232 48.77162476 7.37850786 48.96923828 10.50439453 C49.03369141 11.39384766 49.09814453 12.28330078 49.16455078 13.19970703 C49.21611328 14.05048828 49.26767578 14.90126953 49.32080078 15.77783203 C49.37316895 16.56335449 49.42553711 17.34887695 49.47949219 18.15820312 C49.34423828 20.12939453 49.34423828 20.12939453 47.34423828 22.12939453 C44.71923828 21.75439453 44.71923828 21.75439453 42.34423828 21.12939453 C42.15087891 20.52611328 41.95751953 19.92283203 41.75830078 19.30126953 C41.49791016 18.50205078 41.23751953 17.70283203 40.96923828 16.87939453 C40.71400391 16.09048828 40.45876953 15.30158203 40.19580078 14.48876953 C38.7543288 9.99870613 38.7543288 9.99870613 35.34423828 7.12939453 C33.89771408 6.97872239 32.44544488 6.88078417 30.99267578 6.81298828 C30.22616699 6.77488037 29.4596582 6.73677246 28.66992188 6.69750977 C27.69619629 6.65440674 26.7224707 6.61130371 25.71923828 6.56689453 C22.62548828 6.42251953 19.53173828 6.27814453 16.34423828 6.12939453 C16.34423828 15.03939453 16.34423828 23.94939453 16.34423828 33.12939453 C23.27423828 33.12939453 30.20423828 33.12939453 37.34423828 33.12939453 C37.83923828 35.60439453 37.83923828 35.60439453 38.34423828 38.12939453 C37.34423828 39.12939453 37.34423828 39.12939453 35.30297852 39.24291992 C33.99115601 39.2350647 33.99115601 39.2350647 32.65283203 39.22705078 C31.70859375 39.22382812 30.76435547 39.22060547 29.79150391 39.21728516 C28.79828125 39.20890625 27.80505859 39.20052734 26.78173828 39.19189453 C25.78464844 39.18738281 24.78755859 39.18287109 23.76025391 39.17822266 C21.2881898 39.1663946 18.8162431 39.14991302 16.34423828 39.12939453 C16.48298443 42.90052384 16.63144921 46.67120899 16.78173828 50.44189453 C16.82105469 51.51375 16.86037109 52.58560547 16.90087891 53.68994141 C16.94277344 54.71796875 16.98466797 55.74599609 17.02783203 56.80517578 C17.06448975 57.75303955 17.10114746 58.70090332 17.13891602 59.67749023 C17.25854015 62.26556553 17.25854015 62.26556553 18.34423828 65.12939453 C24.3398554 67.51385835 31.99607975 66.27848396 38.28173828 65.87939453 C43.40489189 62.95187818 44.54983665 57.53740683 46.34423828 52.12939453 C47.99423828 52.12939453 49.64423828 52.12939453 51.34423828 52.12939453 C53.77220171 55.8166375 53.31047221 58.43804573 52.59423828 62.69189453 C52.41376953 63.82755859 52.23330078 64.96322266 52.04736328 66.13330078 C51.34423828 69.12939453 51.34423828 69.12939453 49.34423828 72.12939453 C47.05368042 72.49015808 47.05368042 72.49015808 44.16015625 72.4699707 C42.53870193 72.46963081 42.53870193 72.46963081 40.88449097 72.46928406 C39.71362946 72.4538002 38.54276794 72.43831635 37.33642578 72.42236328 C36.14066925 72.41811844 34.94491272 72.4138736 33.71292114 72.40950012 C29.88146757 72.39266355 26.05053375 72.35500137 22.21923828 72.31689453 C19.62679794 72.30185417 17.03434939 72.28816465 14.44189453 72.27587891 C8.0758308 72.24274371 1.71007166 72.19249484 -4.65576172 72.12939453 C-5.15076172 69.65439453 -5.15076172 69.65439453 -5.65576172 67.12939453 C-5.08986328 67.00822266 -4.52396484 66.88705078 -3.94091797 66.76220703 C-3.20744141 66.59462891 -2.47396484 66.42705078 -1.71826172 66.25439453 C-0.98736328 66.09197266 -0.25646484 65.92955078 0.49658203 65.76220703 C2.55124122 65.2997793 2.55124122 65.2997793 3.34423828 63.12939453 C3.43506208 61.34207529 3.46177627 59.55133964 3.45776367 57.76171875 C3.45768814 56.6407077 3.45761261 55.51969666 3.45753479 54.36471558 C3.4523735 53.15010651 3.44721222 51.93549744 3.44189453 50.68408203 C3.44047958 49.44393341 3.43906464 48.20378479 3.43760681 46.92605591 C3.43294924 43.6282132 3.42396268 40.33041907 3.41290283 37.03259277 C3.4026756 33.66773067 3.39810638 30.30286145 3.39306641 26.93798828 C3.38202097 20.3351046 3.36527075 13.73225354 3.34423828 7.12939453 C0.70423828 6.79939453 -1.93576172 6.46939453 -4.65576172 6.12939453 C-5.03794939 4.47324796 -5.36971274 2.80482429 -5.65576172 1.12939453 C-4.03283675 -0.49353044 -2.24097317 0.00203301 0 0 Z " fill="#000000" transform="translate(205.65576171875,9.87060546875)"/>
<path d="M0 0 C13.13697028 -0.77656967 13.13697028 -0.77656967 17.37548828 2.3605957 C25.05250681 10.10799267 28.58670904 24.5668224 32.5625 34.5625 C37.5388795 47.08254697 37.5388795 47.08254697 42.7265625 59.515625 C43.25564209 60.75940918 43.25564209 60.75940918 43.79541016 62.02832031 C45.85025729 65.3917061 48.27674511 66.05093503 52 67 C52 68.65 52 70.3 52 72 C42.1 72 32.2 72 22 72 C21.67 70.68 21.34 69.36 21 68 C24.13498292 66.14223235 26.37471432 65.79859524 30 66 C29.71517632 64.58194169 29.42181856 63.16559621 29.125 61.75 C28.96257813 60.96109375 28.80015625 60.1721875 28.6328125 59.359375 C28.08209363 56.98229161 28.08209363 56.98229161 26.9296875 54.890625 C26 53 26 53 26 50 C17.09 50 8.18 50 -1 50 C-4.41368057 58.03278616 -4.41368057 58.03278616 -6 66 C-2.7 66.33 0.6 66.66 4 67 C4 68.65 4 70.3 4 72 C-4.91 72 -13.82 72 -23 72 C-23.33 70.68 -23.66 69.36 -24 68 C-23.42572266 67.87222168 -22.85144531 67.74444336 -22.25976562 67.61279297 C-18.06021234 66.28235358 -15.62780219 64.96364261 -13.18359375 61.21191406 C-11.47237969 57.56139415 -9.95668064 53.88199453 -8.5 50.125 C-7.94973769 48.77237742 -7.39665022 47.42090089 -6.84082031 46.07055664 C-5.7279022 43.35345142 -4.63269735 40.63026976 -3.55273438 37.89990234 C-2.14572361 34.34845448 -0.6844892 30.82196043 0.796875 27.30078125 C5.27969206 17.42338217 5.27969206 17.42338217 8 7 C5.36 6.34 2.72 5.68 0 5 C0 3.35 0 1.7 0 0 Z M12 17 C8.88084461 22.86566832 6.16127336 28.83928162 3.6875 35 C3.42114746 35.6587915 3.15479492 36.31758301 2.88037109 36.99633789 C1.46866856 40.39390023 1.46866856 40.39390023 1 44 C8.26 44 15.52 44 23 44 C21.63875 40.3803125 21.63875 40.3803125 20.25 36.6875 C17.79127612 30.14005901 15.36997798 23.58017416 13 17 C12.67 17 12.34 17 12 17 Z " fill="#000000" transform="translate(688,10)"/>
<path d="M0 0 C1.11448013 -0.00315216 2.22896027 -0.00630432 3.37721252 -0.009552 C4.5803862 -0.00752777 5.78355988 -0.00550354 7.02319336 -0.00341797 C8.25718369 -0.00437469 9.49117401 -0.00533142 10.76255798 -0.00631714 C14.04153193 -0.00717257 17.3204586 -0.00314372 20.59942627 0.00244141 C22.61252345 0.00439403 24.62557709 0.00244655 26.63867188 -0.00097656 C30.49603312 -0.00713432 34.35332947 -0.00641095 38.21069336 -0.00341797 C39.41589127 -0.0054422 40.62108917 -0.00746643 41.86280823 -0.009552 C42.9741362 -0.00639984 44.08546417 -0.00324768 45.23046875 0 C46.2118129 0.00079559 47.19315704 0.00159119 48.20423889 0.00241089 C50.55053711 0.12939453 50.55053711 0.12939453 52.55053711 1.12939453 C54.04148444 7.68956279 53.64108167 14.43915737 53.55053711 21.12939453 C50.67553711 21.75439453 50.67553711 21.75439453 47.55053711 22.12939453 C44.58155301 19.16041043 44.30223502 15.66901634 43.33178711 11.66064453 C42.72370903 8.99115242 42.72370903 8.99115242 40.55053711 7.12939453 C34.61053711 6.13939453 34.61053711 6.13939453 28.55053711 5.12939453 C28.88053711 24.59939453 29.21053711 44.06939453 29.55053711 64.12939453 C32.52053711 65.44939453 35.49053711 66.76939453 38.55053711 68.12939453 C38.05553711 70.10939453 38.05553711 70.10939453 37.55053711 72.12939453 C27.32053711 72.12939453 17.09053711 72.12939453 6.55053711 72.12939453 C6.55053711 70.47939453 6.55053711 68.82939453 6.55053711 67.12939453 C7.11643555 66.94763672 7.68233398 66.76587891 8.26538086 66.57861328 C8.99885742 66.32724609 9.73233398 66.07587891 10.48803711 65.81689453 C11.21893555 65.57326172 11.94983398 65.32962891 12.70288086 65.07861328 C14.90985735 64.21699012 14.90985735 64.21699012 15.55053711 61.12939453 C15.6666307 59.30473554 15.72710239 57.47631568 15.75585938 55.64819336 C15.7758046 54.52725784 15.79574982 53.40632233 15.81629944 52.25141907 C15.84136818 50.43724739 15.84136818 50.43724739 15.86694336 48.58642578 C15.88772446 47.34769211 15.90850555 46.10895844 15.92991638 44.83268738 C15.98425508 41.54314197 16.03449662 38.25356727 16.08276367 34.96392822 C16.13304357 31.60561639 16.18869572 28.24739407 16.24389648 24.88916016 C16.35106759 18.30264295 16.45283846 11.71605869 16.55053711 5.12939453 C14.61096897 5.38499653 12.67387722 5.65944099 10.73803711 5.94189453 C9.11961914 6.168125 9.11961914 6.168125 7.46850586 6.39892578 C4.44625653 7.15549958 3.36638041 7.66025595 1.55053711 10.12939453 C0.5455016 12.84962476 0.5455016 12.84962476 -0.13696289 15.81689453 C-0.38833008 16.81076172 -0.63969727 17.80462891 -0.89868164 18.82861328 C-1.08043945 19.58787109 -1.26219727 20.34712891 -1.44946289 21.12939453 C-3.44086849 21.51072752 -5.44225366 21.84265036 -7.44946289 22.12939453 C-8.44946289 21.12939453 -8.44946289 21.12939453 -8.56298828 19.17993164 C-8.55513306 17.93095093 -8.55513306 17.93095093 -8.54711914 16.65673828 C-8.54389648 15.75761719 -8.54067383 14.85849609 -8.53735352 13.93212891 C-8.52897461 12.98660156 -8.5205957 12.04107422 -8.51196289 11.06689453 C-8.50745117 10.1175 -8.50293945 9.16810547 -8.49829102 8.18994141 C-8.48646399 5.83636388 -8.46998314 3.48290976 -8.44946289 1.12939453 C-5.36012115 0.09961395 -3.23721696 0.00262234 0 0 Z " fill="#000000" transform="translate(395.449462890625,9.87060546875)"/>
<path d="M0 0 C6.81483944 -0.33823652 13.00723566 -0.58909364 19 3 C25.02424384 8.49732935 28.48580647 15.22423106 31.9375 22.5 C32.43056641 23.51320313 32.92363281 24.52640625 33.43164062 25.5703125 C34.63236425 28.04170481 35.82142857 30.51798811 37 33 C39.18666444 30.22548839 40.89808842 27.46059568 42.48046875 24.3046875 C42.92197266 23.42425781 43.36347656 22.54382813 43.81835938 21.63671875 C44.27017578 20.72535156 44.72199219 19.81398438 45.1875 18.875 C45.88262695 17.49634766 45.88262695 17.49634766 46.59179688 16.08984375 C47.02943359 15.21199219 47.46707031 14.33414062 47.91796875 13.4296875 C48.31781982 12.62772949 48.7176709 11.82577148 49.12963867 10.99951172 C50.13303833 9.05782109 50.13303833 9.05782109 50 7 C47.69 6.67 45.38 6.34 43 6 C42.61781233 4.34385343 42.28604898 2.67542976 42 1 C43 0 43 0 45.50024414 -0.11352539 C46.58426514 -0.10828857 47.66828613 -0.10305176 48.78515625 -0.09765625 C49.95498047 -0.09443359 51.12480469 -0.09121094 52.33007812 -0.08789062 C53.56177734 -0.07951172 54.79347656 -0.07113281 56.0625 -0.0625 C57.91584961 -0.05573242 57.91584961 -0.05573242 59.80664062 -0.04882812 C62.87114117 -0.03699608 65.93554721 -0.02051173 69 0 C69.38218767 1.65614657 69.71395102 3.32457024 70 5 C69 6 69 6 67.14453125 6.21875 C63.64359528 6.64097343 60.89604867 7.02516858 58.43945312 9.69775391 C54.54217641 15.9353764 51.04653639 22.33261779 47.6875 28.875 C47.15060547 29.90625 46.61371094 30.9375 46.06054688 32 C42.13142377 39.29445754 42.13142377 39.29445754 40.8671875 47.34375 C40.86589844 48.17777344 40.86460937 49.01179688 40.86328125 49.87109375 C40.86908203 51.17240234 40.86908203 51.17240234 40.875 52.5 C40.87113281 53.36753906 40.86726563 54.23507813 40.86328125 55.12890625 C40.86521484 56.37994141 40.86521484 56.37994141 40.8671875 57.65625 C40.86887939 58.79803711 40.86887939 58.79803711 40.87060547 59.96289062 C40.9258285 62.20324188 40.9258285 62.20324188 42 65 C43.87387216 65.80212628 43.87387216 65.80212628 46.0625 66.1875 C47.16271484 66.42533203 47.16271484 66.42533203 48.28515625 66.66796875 C48.85105469 66.77753906 49.41695313 66.88710937 50 67 C49.67 68.65 49.34 70.3 49 72 C39.1 72 29.2 72 19 72 C18.67 70.35 18.34 68.7 18 67 C18.56589844 66.87882812 19.13179688 66.75765625 19.71484375 66.6328125 C20.44832031 66.46523437 21.18179687 66.29765625 21.9375 66.125 C22.66839844 65.96257812 23.39929688 65.80015625 24.15234375 65.6328125 C26.20700294 65.17038477 26.20700294 65.17038477 27 63 C28.68422594 49.43465847 26.52257765 38.81475339 20 27 C19.21213832 25.51958514 18.42438048 24.03911501 17.63671875 22.55859375 C12.43325061 12.26439872 12.43325061 12.26439872 3.3125 5.8125 C2.50425781 5.46832031 1.69601562 5.12414062 0.86328125 4.76953125 C0.24839844 4.51558594 -0.36648438 4.26164063 -1 4 C-0.67 2.68 -0.34 1.36 0 0 Z " fill="#000000" transform="translate(452,10)"/>
<path d="M0 0 C1.25159912 0.00523682 2.50319824 0.01047363 3.79272461 0.01586914 C4.78942421 0.01799156 4.78942421 0.01799156 5.80625916 0.02015686 C7.93590735 0.02577021 10.06545175 0.03832485 12.19506836 0.05102539 C13.63582205 0.05603868 15.07657739 0.06060188 16.51733398 0.06469727 C20.05577938 0.07574394 23.59416375 0.09301747 27.13256836 0.11352539 C27.46256836 1.76352539 27.79256836 3.41352539 28.13256836 5.11352539 C27.56666992 5.2952832 27.00077148 5.47704102 26.41772461 5.66430664 C25.68424805 5.91567383 24.95077148 6.16704102 24.19506836 6.42602539 C23.46416992 6.6696582 22.73327148 6.91329102 21.98022461 7.16430664 C19.77324812 8.0259298 19.77324812 8.0259298 19.13256836 11.11352539 C19.04019521 12.76971534 19.00465614 14.42937145 19.00317383 16.08813477 C19.00002167 17.09928345 18.99686951 18.11043213 18.99362183 19.15222168 C18.99564606 20.2428894 18.99767029 21.33355713 18.99975586 22.45727539 C18.99879913 23.57791382 18.99784241 24.69855225 18.99685669 25.85314941 C18.99617587 28.22363338 18.99802332 30.59411922 19.00219727 32.96459961 C19.00754686 36.59891944 19.00224892 40.23311567 18.99584961 43.86743164 C18.99651041 46.16821316 18.99779161 48.46899461 18.99975586 50.76977539 C18.99773163 51.86044312 18.9957074 52.95111084 18.99362183 54.0748291 C18.99677399 55.08597778 18.99992615 56.09712646 19.00317383 57.13891602 C19.00396942 58.02921509 19.00476501 58.91951416 19.00558472 59.83679199 C19.0417376 62.27921117 19.0417376 62.27921117 20.13256836 65.11352539 C25.9446715 67.43033148 33.58551774 66.47738976 39.63256836 65.61352539 C43.42283074 63.33936797 44.48433892 60.08425995 46.13256836 56.11352539 C46.78995992 54.77559469 47.45402398 53.44085344 48.13256836 52.11352539 C49.79868741 52.07080439 51.46639721 52.07288707 53.13256836 52.11352539 C54.13256836 53.11352539 54.13256836 53.11352539 54.32006836 56.55102539 C54.18407935 69.0620144 54.18407935 69.0620144 51.13256836 72.11352539 C49.44454851 72.20705702 47.75261628 72.2309733 46.06201172 72.22705078 C44.98096664 72.22697525 43.89992157 72.22689972 42.78611755 72.2268219 C41.02208336 72.21907997 41.02208336 72.21907997 39.22241211 72.21118164 C38.02524063 72.20976669 36.82806915 72.20835175 35.59461975 72.20689392 C31.7530777 72.20127518 27.91159293 72.1887195 24.07006836 72.17602539 C21.47306399 72.17101281 18.87605871 72.16644948 16.27905273 72.16235352 C9.89687157 72.15129967 3.51472406 72.13454331 -2.86743164 72.11352539 C-3.19743164 70.79352539 -3.52743164 69.47352539 -3.86743164 68.11352539 C-3.3015332 67.92016602 -2.73563477 67.72680664 -2.15258789 67.52758789 C-1.05237305 67.13700195 -1.05237305 67.13700195 0.07006836 66.73852539 C0.8009668 66.48329102 1.53186523 66.22805664 2.28491211 65.96508789 C4.31938952 65.26081126 4.31938952 65.26081126 5.13256836 63.11352539 C5.22339216 61.32620615 5.25010635 59.5354705 5.24609375 57.74584961 C5.24601822 56.62483856 5.24594269 55.50382751 5.24586487 54.34884644 C5.24070358 53.13423737 5.2355423 51.9196283 5.23022461 50.66821289 C5.22880966 49.42806427 5.22739471 48.18791565 5.22593689 46.91018677 C5.22127932 43.61234406 5.21229275 40.31454993 5.20123291 37.01672363 C5.19100567 33.65186152 5.18643645 30.28699231 5.18139648 26.92211914 C5.17035105 20.31923546 5.15360083 13.7163844 5.13256836 7.11352539 C2.49256836 6.78352539 -0.14743164 6.45352539 -2.86743164 6.11352539 C-3.24961931 4.45737882 -3.58138266 2.78895515 -3.86743164 1.11352539 C-2.86743164 0.11352539 -2.86743164 0.11352539 0 0 Z " fill="#000000" transform="translate(1068.867431640625,9.886474609375)"/>
<path d="M0 0 C9.9 0 19.8 0 30 0 C30.33 1.65 30.66 3.3 31 5 C30.43410156 5.19335938 29.86820313 5.38671875 29.28515625 5.5859375 C28.18494141 5.97652344 28.18494141 5.97652344 27.0625 6.375 C25.96615234 6.75785156 25.96615234 6.75785156 24.84765625 7.1484375 C22.81317884 7.85271413 22.81317884 7.85271413 22 10 C21.90445934 11.68469336 21.87204735 13.3731472 21.87060547 15.06054688 C21.86745331 16.11504028 21.86430115 17.16953369 21.86105347 18.25598145 C21.8630777 19.39869507 21.86510193 20.54140869 21.8671875 21.71875 C21.86623077 22.88756714 21.86527405 24.05638428 21.86428833 25.26062012 C21.86360687 27.73543349 21.86545878 30.21024864 21.86962891 32.68505859 C21.8749776 36.48409012 21.86968272 40.28300342 21.86328125 44.08203125 C21.86394204 46.4817711 21.86522321 48.88151087 21.8671875 51.28125 C21.86516327 52.42396362 21.86313904 53.56667725 21.86105347 54.74401855 C21.86420563 55.79851196 21.86735779 56.85300537 21.87060547 57.93945312 C21.87140106 58.8705188 21.87219666 59.80158447 21.87301636 60.76086426 C21.85393755 63.03775317 21.85393755 63.03775317 23 65 C28.9870682 67.16582882 36.32035258 66.38280677 42.5 65.5 C46.29026238 63.22584257 47.35177056 59.97073456 49 56 C49.65739156 54.6620693 50.32145562 53.32732805 51 52 C52.66611905 51.957279 54.33382885 51.95936168 56 52 C57 53 57 53 57.1875 56.4375 C57.05151099 68.94848901 57.05151099 68.94848901 54 72 C52.31198015 72.09353163 50.62004793 72.11744791 48.92944336 72.11352539 C47.84839828 72.11344986 46.76735321 72.11337433 45.65354919 72.11329651 C43.889515 72.10555458 43.889515 72.10555458 42.08984375 72.09765625 C40.89267227 72.0962413 39.69550079 72.09482635 38.46205139 72.09336853 C34.62050934 72.08774979 30.77902457 72.07519411 26.9375 72.0625 C24.34049563 72.05748741 21.74349035 72.05292409 19.14648438 72.04882812 C12.76430321 72.03777427 6.3821557 72.02101792 0 72 C-0.495 69.525 -0.495 69.525 -1 67 C-0.43410156 66.87882812 0.13179687 66.75765625 0.71484375 66.6328125 C1.44832031 66.46523437 2.18179687 66.29765625 2.9375 66.125 C3.66839844 65.96257812 4.39929687 65.80015625 5.15234375 65.6328125 C7.20700294 65.17038477 7.20700294 65.17038477 8 63 C8.10071624 61.28482415 8.13836137 59.56577275 8.14526367 57.84765625 C8.15164352 56.77314209 8.15802338 55.69862793 8.16459656 54.59155273 C8.16570938 53.42696533 8.1668222 52.26237793 8.16796875 51.0625 C8.17296135 49.27598022 8.17296135 49.27598022 8.17805481 47.45336914 C8.1831246 44.9314818 8.18546312 42.40958774 8.18530273 39.88769531 C8.18749086 36.01616455 8.20565084 32.14491786 8.22460938 28.2734375 C8.22754287 25.82812598 8.22952796 23.3828131 8.23046875 20.9375 C8.24124702 19.1906189 8.24124702 19.1906189 8.25224304 17.40844727 C8.24916641 16.33393311 8.24608978 15.25941895 8.24291992 14.15234375 C8.24505745 12.7290979 8.24505745 12.7290979 8.24723816 11.27709961 C8.21905181 8.80128571 8.21905181 8.80128571 6 7 C3.68234271 6.28072705 1.34904126 5.6090107 -1 5 C-0.67 3.35 -0.34 1.7 0 0 Z " fill="#000000" transform="translate(1130,10)"/>
<path d="M0 0 C9.9 0 19.8 0 30 0 C30.33 1.65 30.66 3.3 31 5 C30.43410156 5.19335938 29.86820312 5.38671875 29.28515625 5.5859375 C28.18494141 5.97652344 28.18494141 5.97652344 27.0625 6.375 C25.96615234 6.75785156 25.96615234 6.75785156 24.84765625 7.1484375 C22.81317884 7.85271413 22.81317884 7.85271413 22 10 C21.90445934 11.68469336 21.87204735 13.3731472 21.87060547 15.06054688 C21.86745331 16.11504028 21.86430115 17.16953369 21.86105347 18.25598145 C21.8630777 19.39869507 21.86510193 20.54140869 21.8671875 21.71875 C21.86623077 22.88756714 21.86527405 24.05638428 21.86428833 25.26062012 C21.86360687 27.73543349 21.86545878 30.21024864 21.86962891 32.68505859 C21.8749776 36.48409012 21.86968272 40.28300342 21.86328125 44.08203125 C21.86394204 46.4817711 21.86522321 48.88151087 21.8671875 51.28125 C21.86516327 52.42396362 21.86313904 53.56667725 21.86105347 54.74401855 C21.86420563 55.79851196 21.86735779 56.85300537 21.87060547 57.93945312 C21.87140106 58.8705188 21.87219666 59.80158447 21.87301636 60.76086426 C21.85393755 63.03775317 21.85393755 63.03775317 23 65 C24.88764903 65.68472665 24.88764903 65.68472665 27.0625 66.125 C27.79597656 66.29257813 28.52945312 66.46015625 29.28515625 66.6328125 C30.13400391 66.81457031 30.13400391 66.81457031 31 67 C30.67 68.65 30.34 70.3 30 72 C20.1 72 10.2 72 0 72 C-0.495 69.525 -0.495 69.525 -1 67 C-0.43410156 66.87882812 0.13179688 66.75765625 0.71484375 66.6328125 C1.44832031 66.46523437 2.18179687 66.29765625 2.9375 66.125 C3.66839844 65.96257812 4.39929688 65.80015625 5.15234375 65.6328125 C7.20700294 65.17038477 7.20700294 65.17038477 8 63 C8.10058057 61.32075325 8.13835416 59.63756433 8.14526367 57.95532227 C8.15164352 56.90405655 8.15802338 55.85279083 8.16459656 54.76966858 C8.16570938 53.63009201 8.1668222 52.49051544 8.16796875 51.31640625 C8.17129715 50.14996078 8.17462555 48.98351532 8.17805481 47.78172302 C8.18312484 45.31111038 8.18546311 42.84049088 8.18530273 40.36987305 C8.18748889 36.58175421 8.20564318 32.79392662 8.22460938 29.00585938 C8.22754328 26.609376 8.2295281 24.21289124 8.23046875 21.81640625 C8.23765427 20.67885391 8.24483978 19.54130157 8.25224304 18.36927795 C8.24916641 17.31486008 8.24608978 16.2604422 8.24291992 15.17407227 C8.24505745 13.78080467 8.24505745 13.78080467 8.24723816 12.35939026 C8.15669258 9.7313272 8.15669258 9.7313272 6 7 C2.44327821 5.7811879 2.44327821 5.7811879 -1 5 C-0.67 3.35 -0.34 1.7 0 0 Z " fill="#000000" transform="translate(350,10)"/>
</svg>
