<!DOCTYPE svg PUBLIC "-//W3C//DTD SVG 1.1//EN" "http://www.w3.org/Graphics/SVG/1.1/DTD/svg11.dtd">
<!-- Uploaded to: SVG Repo, www.svgrepo.com, Transformed by: SVG Repo Mixer Tools -->
<svg fill="#426249" height="256px" width="256px" version="1.1" id="Capa_1" xmlns="http://www.w3.org/2000/svg" xmlns:xlink="http://www.w3.org/1999/xlink" viewBox="-3.28 -3.28 39.37 39.37" xml:space="preserve" stroke="#426249" stroke-width="0.00032811000000000006">
<g id="SVGRepo_bgCarrier" stroke-width="0" transform="translate(1.476495,1.476495), scale(0.91)">
<path transform="translate(-3.28, -3.28), scale(2.460625)" fill="#88B293" d="M9.166.33a2.25 2.25 0 00-2.332 0l-5.25 3.182A2.25 2.25 0 00.5 5.436v5.128a2.25 2.25 0 001.084 1.924l5.25 3.182a2.25 2.25 0 002.332 0l5.25-3.182a2.25 2.25 0 001.084-1.924V5.436a2.25 2.25 0 00-1.084-1.924L9.166.33z" strokewidth="0"/>
</g>
<g id="SVGRepo_tracerCarrier" stroke-linecap="round" stroke-linejoin="round" stroke="#88B293" stroke-width="0.39373199999999997"> <g> <path d="M0,1.356v16.743h5.249v7.154v3.617v2.586h3.61v-2.586h15.423v2.586h3.606V18.098h4.923V1.356H0z M31.136,2.281 l-7.764,14.658h-4.783l7.762-14.658C26.351,2.281,31.136,2.281,31.136,2.281z M23.016,2.245l-7.766,14.66h-4.785l7.767-14.66 C18.232,2.245,23.016,2.245,23.016,2.245z M1.31,2.429l5.617-0.017L1.281,12.99L1.31,2.429z M7.468,17.06H2.684l7.763-14.658h4.785 L7.468,17.06z M24.282,25.252H8.859v-7.154h15.423C24.282,18.098,24.282,25.252,24.282,25.252z M32.149,16.811l-5.616-0.006 l5.646-10.576L32.149,16.811z"/> <path d="M0,1.356v16.743h5.249v7.154v3.617v2.586h3.61v-2.586h15.423v2.586h3.606V18.098h4.923V1.356H0z M31.136,2.281 l-7.764,14.658h-4.783l7.762-14.658C26.351,2.281,31.136,2.281,31.136,2.281z M23.016,2.245l-7.766,14.66h-4.785l7.767-14.66 C18.232,2.245,23.016,2.245,23.016,2.245z M1.31,2.429l5.617-0.017L1.281,12.99L1.31,2.429z M7.468,17.06H2.684l7.763-14.658h4.785 L7.468,17.06z M24.282,25.252H8.859v-7.154h15.423C24.282,18.098,24.282,25.252,24.282,25.252z M32.149,16.811l-5.616-0.006 l5.646-10.576L32.149,16.811z"/> <g> </g> <g> </g> <g> </g> <g> </g> <g> </g> <g> </g> <g> </g> <g> </g> <g> </g> <g> </g> <g> </g> <g> </g> <g> </g> <g> </g> <g> </g> </g> </g>
<g id="SVGRepo_iconCarrier"> <g> <path d="M0,1.356v16.743h5.249v7.154v3.617v2.586h3.61v-2.586h15.423v2.586h3.606V18.098h4.923V1.356H0z M31.136,2.281 l-7.764,14.658h-4.783l7.762-14.658C26.351,2.281,31.136,2.281,31.136,2.281z M23.016,2.245l-7.766,14.66h-4.785l7.767-14.66 C18.232,2.245,23.016,2.245,23.016,2.245z M1.31,2.429l5.617-0.017L1.281,12.99L1.31,2.429z M7.468,17.06H2.684l7.763-14.658h4.785 L7.468,17.06z M24.282,25.252H8.859v-7.154h15.423C24.282,18.098,24.282,25.252,24.282,25.252z M32.149,16.811l-5.616-0.006 l5.646-10.576L32.149,16.811z"/> <path d="M0,1.356v16.743h5.249v7.154v3.617v2.586h3.61v-2.586h15.423v2.586h3.606V18.098h4.923V1.356H0z M31.136,2.281 l-7.764,14.658h-4.783l7.762-14.658C26.351,2.281,31.136,2.281,31.136,2.281z M23.016,2.245l-7.766,14.66h-4.785l7.767-14.66 C18.232,2.245,23.016,2.245,23.016,2.245z M1.31,2.429l5.617-0.017L1.281,12.99L1.31,2.429z M7.468,17.06H2.684l7.763-14.658h4.785 L7.468,17.06z M24.282,25.252H8.859v-7.154h15.423C24.282,18.098,24.282,25.252,24.282,25.252z M32.149,16.811l-5.616-0.006 l5.646-10.576L32.149,16.811z"/> <g> </g> <g> </g> <g> </g> <g> </g> <g> </g> <g> </g> <g> </g> <g> </g> <g> </g> <g> </g> <g> </g> <g> </g> <g> </g> <g> </g> <g> </g> </g> </g>
</svg>